<svg version="1.1" id="Layer_1" xmlns="http://www.w3.org/2000/svg" xmlns:xlink="http://www.w3.org/1999/xlink" x="0px" y="0px"
	 width="100%" viewBox="0 0 360 360" enable-background="new 0 0 360 360" xml:space="preserve">
<path fill="#FFFFFF" opacity="1.000000" stroke="none" 
	d="
M200.000000,361.000000 
	C133.356308,361.000000 67.212616,361.000000 1.034459,361.000000 
	C1.034459,241.064651 1.034459,121.129280 1.034459,1.096955 
	C120.893631,1.096955 240.787354,1.096955 360.840546,1.096955 
	C360.840546,120.999832 360.840546,240.999893 360.840546,361.000000 
	C307.462708,361.000000 253.981354,361.000000 200.000000,361.000000 
M291.945557,185.056747 
	C294.220795,185.056747 296.496033,185.056747 299.092285,185.056747 
	C299.092285,182.038025 299.092285,179.564621 299.983551,177.158066 
	C302.113800,177.158066 304.244019,177.158066 307.016785,177.158066 
	C307.016785,163.860092 307.016785,150.937103 307.914948,138.014206 
	C310.153931,138.014206 312.392944,138.014206 314.537323,138.014206 
	C314.537323,127.179138 314.537323,117.019989 314.537323,106.759361 
	C311.800446,106.513237 309.365631,106.294273 306.843964,105.133842 
	C306.843964,100.431770 306.843964,95.729691 306.843964,90.850357 
	C303.778839,90.850357 301.472015,90.850357 299.069611,89.961647 
	C299.069611,87.686829 299.069611,85.412010 299.069611,82.734100 
	C296.128876,82.734100 293.682861,82.734100 291.220215,81.849274 
	C291.220215,79.631165 291.220215,77.413048 291.220215,75.010696 
	C283.050476,75.010696 275.516266,75.010696 267.748016,74.153610 
	C267.748016,71.915680 267.748016,69.677750 267.748016,67.022339 
	C264.665619,67.022339 262.246521,67.022339 259.831604,66.132729 
	C259.831604,63.911568 259.831604,61.690411 259.831604,59.018059 
	C254.084030,59.018059 249.022064,59.018059 243.995987,58.131145 
	C243.995987,56.026604 243.995987,53.922058 243.995987,51.316303 
	C235.914276,51.316303 228.335373,51.316303 220.749237,51.316303 
	C220.547363,48.563133 220.382553,46.315697 220.214233,44.020096 
	C201.861694,44.020096 183.930389,44.020096 165.530685,44.020096 
	C165.530685,46.493134 165.530685,48.786121 164.541962,51.250011 
	C159.684631,51.250011 154.827301,51.250011 150.147217,51.250011 
	C149.704193,54.447975 149.373810,56.832943 148.105209,59.172752 
	C143.510788,59.172752 138.916367,59.172752 134.134048,59.172752 
	C134.134048,62.118328 134.134048,64.572762 133.231674,67.103920 
	C130.986877,67.103920 128.742065,67.103920 125.996033,67.103920 
	C125.996033,70.125740 125.996033,72.559784 125.059227,74.998657 
	C115.046417,74.998657 105.033607,74.998657 94.848976,74.998657 
	C94.848976,77.912811 94.848976,80.366913 93.951843,82.786278 
	C91.713753,82.786278 89.475670,82.786278 87.054649,82.786278 
	C87.054649,90.928337 87.054649,98.490097 86.241295,106.421616 
	C83.970070,106.421616 81.698845,106.421616 79.402191,106.421616 
	C79.402191,119.873039 79.402191,132.601135 79.402191,145.795807 
	C84.529671,145.795807 89.438004,145.795807 94.964951,145.795807 
	C94.964951,164.405045 94.964951,182.556107 94.964951,200.766159 
	C97.750336,200.766159 99.899651,200.766159 102.635277,201.469223 
	C102.737076,203.756012 102.838867,206.042816 102.945213,208.431778 
	C105.522430,208.612244 107.772614,208.769806 110.143326,208.935822 
	C110.308800,211.645065 110.454857,214.036407 110.602325,216.450867 
	C113.661385,216.626907 116.139900,216.769547 118.501213,217.779861 
	C118.501213,219.747345 118.501213,221.714828 118.501213,223.899094 
	C121.254471,224.102570 123.630814,224.278183 126.310913,224.476242 
	C126.310913,245.489380 126.310913,266.070526 126.310913,286.788940 
	C129.039001,286.954590 131.432159,287.099884 133.670166,287.235748 
	C133.670166,292.530518 133.670166,297.436646 133.670166,302.545044 
	C131.020493,302.424011 128.703186,302.318176 126.593506,301.375580 
	C126.593506,299.136993 126.593506,296.898407 126.593506,294.608002 
	C120.862015,294.608002 115.932014,294.608002 110.778061,294.608002 
	C110.778061,297.362671 110.778061,299.875031 110.778061,302.402405 
	C113.473434,302.572876 115.777908,302.718597 118.482811,303.414948 
	C118.608452,305.576080 118.734100,307.737244 118.005516,309.963745 
	C115.456024,309.993561 112.906532,310.023346 110.475945,309.148834 
	C110.475945,307.045654 110.475945,304.942474 110.475945,302.858948 
	C107.755737,302.858948 105.410950,302.858948 102.918327,302.858948 
	C102.918327,305.493744 102.918327,307.768494 103.044594,310.033783 
	C103.044594,310.033783 103.053329,309.907440 102.117088,310.043915 
	C86.744041,310.032684 71.370995,310.021454 56.083809,309.120544 
	C56.083809,307.017334 56.083809,304.914124 56.083809,302.586792 
	C53.138821,302.391235 50.557621,302.219818 48.020035,301.155579 
	C48.020035,299.041260 48.020035,296.926941 48.020035,294.708069 
	C42.445526,294.708069 37.350185,294.708069 32.008270,294.708069 
	C32.008270,297.445526 32.008270,299.929230 31.137022,302.458069 
	C28.882969,302.458069 26.628918,302.458069 24.408304,302.458069 
	C24.408304,308.068970 24.408304,312.968353 24.408304,318.081604 
	C27.124979,318.081604 29.582153,318.081604 32.036049,317.960236 
	C32.036049,317.960236 31.915455,317.945953 31.945045,318.845398 
	C31.935196,321.244904 31.925344,323.644440 32.033344,326.033051 
	C32.033344,326.033051 32.037888,325.914764 31.134983,325.979858 
	C28.891562,325.979858 26.648142,325.979858 24.412910,325.979858 
	C24.412910,331.650330 24.412910,336.690247 24.412910,341.957642 
	C27.131464,341.957642 29.585960,341.957642 31.989668,342.862122 
	C31.989668,345.103180 31.989668,347.344269 31.989668,349.602112 
	C37.630424,349.602112 42.663609,349.602112 47.946377,349.602112 
	C47.946377,346.909180 47.946377,344.464722 48.860798,342.000244 
	C51.225887,342.000244 53.590977,342.000244 55.986351,342.000244 
	C55.986351,338.846924 55.986351,336.399048 56.924053,334.004333 
	C72.300453,334.030212 87.676849,334.056091 103.045601,333.956604 
	C103.045601,333.956604 102.920700,333.943542 102.843163,334.865509 
	C102.843163,337.119110 102.843163,339.372711 102.843163,342.089325 
	C105.652748,342.089325 108.087990,342.089325 110.513626,341.985474 
	C110.513626,341.985474 110.409416,341.988953 110.448700,342.917572 
	C110.448700,345.160187 110.448700,347.402832 110.448700,350.023773 
	C113.758972,350.023773 116.518578,350.023926 119.278183,350.023743 
	C127.160767,350.023224 127.264595,349.901031 125.981194,341.987488 
	C125.981194,341.987488 125.949181,342.099213 126.872269,342.154083 
	C129.286774,342.017456 131.701294,341.880859 133.978912,341.752014 
	C133.978912,336.330048 133.978912,331.382263 133.978912,325.922089 
	C131.420898,325.922089 129.038498,325.922089 126.289246,325.922089 
	C126.552345,322.915497 126.767700,320.454529 127.891899,318.163788 
	C129.956573,318.163788 132.021240,318.163788 134.037567,318.163788 
	C134.172958,315.387878 134.274521,313.305420 134.378677,311.169800 
	C137.045395,311.169800 139.302551,311.169800 142.041687,311.169800 
	C142.041687,318.829498 142.041687,326.338593 142.041687,334.077972 
	C144.984192,334.077972 147.446381,334.077972 149.841858,334.983093 
	C149.841858,337.229462 149.841858,339.475830 149.841858,341.659912 
	C157.966461,341.659912 165.603653,341.659912 173.356750,341.659912 
	C173.479538,338.953461 173.587296,336.578186 173.704605,333.992279 
	C176.421478,333.992279 178.714478,333.992279 181.001465,334.903931 
	C181.001465,337.159454 181.001465,339.414978 181.001465,341.682922 
	C189.273529,341.682922 197.100967,341.682922 204.966873,341.682922 
	C204.966873,338.890717 204.966873,336.414398 205.868500,333.997589 
	C208.118271,333.997589 210.368027,333.997589 213.006790,333.997589 
	C213.006790,325.881134 213.006790,318.428558 213.940582,310.901581 
	C221.242706,310.941437 228.544830,310.981293 235.950607,311.929901 
	C235.950607,313.980194 235.950607,316.030518 235.950607,318.129425 
	C238.968918,318.129425 241.391708,318.129425 243.788666,319.046082 
	C243.788666,323.902771 243.788666,328.759491 243.788666,333.823303 
	C246.789276,333.966003 249.358246,334.088196 251.819275,335.098694 
	C251.819275,337.333099 251.819275,339.567505 251.819275,341.655060 
	C260.028748,341.655060 267.676971,341.655060 275.311920,341.655060 
	C275.514648,338.847351 275.691223,336.401978 276.800110,334.004150 
	C278.872986,334.004150 280.945831,334.004150 283.336426,334.004150 
	C283.336426,323.323486 283.336426,313.285126 283.336426,303.143127 
	C286.032562,303.143127 288.393890,303.143127 291.169189,303.143127 
	C291.169189,308.318573 291.169189,313.201202 291.169189,317.989471 
	C293.737732,317.989471 295.881622,317.989471 298.607574,318.763184 
	C298.607574,323.718323 298.607574,328.673462 298.607574,334.025970 
	C301.509369,334.025970 303.960022,334.025970 306.484741,334.902649 
	C306.484741,337.172150 306.484741,339.441650 306.484741,341.678894 
	C314.712921,341.678894 322.391632,341.678894 329.967072,341.678894 
	C329.967072,338.884460 329.967072,336.410645 330.884888,334.022827 
	C333.294647,334.022827 335.704407,334.022827 337.883057,334.022827 
	C337.883057,317.848572 337.883057,302.428619 337.883057,287.029083 
	C335.185883,286.846680 332.781067,286.684082 329.999969,286.496002 
	C329.999969,273.317047 329.999969,260.578583 329.999969,247.749680 
	C327.350281,247.535385 325.103668,247.353683 322.706512,247.159821 
	C322.706512,244.698914 322.706512,242.598083 322.706512,240.260818 
	C325.199066,240.083115 327.613159,239.910995 330.023041,239.739166 
	C330.152130,237.035339 330.267700,234.614029 330.384705,232.163177 
	C333.225342,232.031311 335.640564,231.919189 337.994385,231.809921 
	C337.994385,221.225403 337.994385,211.106583 337.994385,200.769073 
	C335.416779,200.567749 332.994324,200.378525 330.398346,200.175751 
	C330.247162,197.697891 330.109558,195.443161 329.963043,193.041763 
	C316.789307,193.041763 303.862762,193.041763 291.258270,192.200302 
	C291.186584,189.812088 291.114929,187.423874 291.945557,185.056747 
z"/>
<path fill="#110B0B" opacity="1.000000" stroke="none" 
	d="
M290.936218,193.041763 
	C303.862762,193.041763 316.789307,193.041763 329.963043,193.041763 
	C330.109558,195.443161 330.247162,197.697891 330.398346,200.175751 
	C332.994324,200.378525 335.416779,200.567749 337.994385,200.769073 
	C337.994385,211.106583 337.994385,221.225403 337.994385,231.809921 
	C335.640564,231.919189 333.225342,232.031311 330.384705,232.163177 
	C330.267700,234.614029 330.152130,237.035339 330.023041,239.739166 
	C327.613159,239.910995 325.199066,240.083115 322.706512,240.260818 
	C322.706512,242.598083 322.706512,244.698914 322.706512,247.159821 
	C325.103668,247.353683 327.350281,247.535385 329.999969,247.749680 
	C329.999969,260.578583 329.999969,273.317047 329.999969,286.496002 
	C332.781067,286.684082 335.185883,286.846680 337.883057,287.029083 
	C337.883057,302.428619 337.883057,317.848572 337.883057,334.022827 
	C335.704407,334.022827 333.294647,334.022827 330.454041,334.004089 
	C330.023224,333.985321 330.044281,334.056488 330.091003,333.586121 
	C330.095947,323.073853 330.054199,313.031952 330.076355,302.542236 
	C330.140289,299.853455 330.140289,297.612427 330.140289,295.171631 
	C327.115692,294.983429 324.698730,294.833038 322.239258,294.235992 
	C322.123535,283.531860 322.050293,273.274384 322.035645,262.570557 
	C322.094238,259.903137 322.094238,257.682129 322.094238,255.030975 
	C319.213623,255.030975 317.095642,255.030975 314.913025,254.564056 
	C314.848938,246.728455 314.849518,239.359741 315.309814,231.978241 
	C317.843384,231.965424 319.917175,231.965424 322.259674,231.965424 
	C322.259674,228.889908 322.259674,226.583145 322.212036,224.152100 
	C322.164429,224.027817 322.295532,224.259506 322.726715,224.238266 
	C325.387421,224.078186 327.616913,223.939346 329.893219,223.797592 
	C329.893219,220.849472 329.893219,218.398849 329.939026,215.510605 
	C329.984833,212.993408 329.984833,210.913818 329.984833,208.729767 
	C327.242859,208.508148 325.027679,208.329102 322.802643,208.149246 
	C322.591644,205.442841 322.417267,203.206512 322.217743,200.647842 
	C317.016937,200.647842 312.124146,200.647842 306.789429,200.515778 
	C303.970154,200.383713 301.592834,200.383713 298.972137,200.383713 
	C298.972137,203.764343 298.972137,206.371964 298.915405,209.412750 
	C298.885620,211.878372 298.912537,213.910828 298.477966,216.005905 
	C287.801453,216.068542 277.586456,216.068542 267.395142,216.068542 
	C267.207794,219.293747 267.076019,221.562256 266.936310,223.967239 
	C264.386230,224.131958 262.149170,224.276459 259.816467,224.427139 
	C259.616974,227.127472 259.448669,229.405472 259.271729,231.800644 
	C256.758575,231.941498 254.488968,232.068726 252.077866,232.203873 
	C251.903610,234.868958 251.746490,237.271805 251.571243,239.951767 
	C246.292099,239.951767 241.332260,239.940643 236.372482,239.953720 
	C215.271072,240.009384 194.169647,240.072235 172.619873,240.078735 
	C170.078171,240.074158 167.984833,240.123276 165.456848,240.098984 
	C162.367722,240.084335 159.713211,240.143112 156.595901,240.117035 
	C151.448898,240.069031 146.764709,240.105911 141.626007,240.092026 
	C138.915115,240.041275 136.658737,240.041275 134.333481,240.041275 
	C134.333481,253.311203 134.333481,265.980652 134.333481,278.947571 
	C137.113083,278.947571 139.577454,278.947571 142.020493,278.972229 
	C141.999161,278.996887 142.050735,278.957916 142.086319,279.428345 
	C142.127365,284.715240 142.135956,289.531647 142.137589,294.348083 
	C142.140274,302.293976 142.138382,302.293976 149.969040,303.366028 
	C149.969040,313.533569 149.969040,323.785187 149.956390,334.050720 
	C149.943741,334.064606 149.908569,334.077972 149.908569,334.077972 
	C147.446381,334.077972 144.984192,334.077972 142.041687,334.077972 
	C142.041687,326.338593 142.041687,318.829498 142.041687,311.169800 
	C139.302551,311.169800 137.045395,311.169800 134.378677,311.169800 
	C134.274521,313.305420 134.172958,315.387878 134.037567,318.163788 
	C132.021240,318.163788 129.956573,318.163788 127.332870,318.105713 
	C126.773834,318.047668 126.557983,318.037811 126.380112,317.598938 
	C125.998276,312.181732 125.794304,307.203400 125.789986,302.269440 
	C125.989639,302.313812 126.385895,302.212311 126.385895,302.212311 
	C128.703186,302.318176 131.020493,302.424011 133.670166,302.545044 
	C133.670166,297.436646 133.670166,292.530518 133.670166,287.235748 
	C131.432159,287.099884 129.039001,286.954590 126.310913,286.788940 
	C126.310913,266.070526 126.310913,245.489380 126.310913,224.476242 
	C123.630814,224.278183 121.254471,224.102570 118.501213,223.899094 
	C118.501213,221.714828 118.501213,219.747345 118.674744,217.372406 
	C118.848267,216.964935 118.995132,216.553680 119.430260,216.464279 
	C122.234024,216.264816 124.602669,216.154755 127.415466,216.091553 
	C129.795837,216.138412 131.732040,216.138412 134.028198,216.138412 
	C134.028198,219.009476 134.028198,221.275360 134.028198,223.844177 
	C170.784424,223.844177 207.171158,223.844177 243.761627,223.844177 
	C243.931931,221.300598 244.093430,218.888565 244.264175,216.338577 
	C247.040863,216.200684 249.506210,216.078262 252.415039,216.022156 
	C254.933426,216.088470 257.008331,216.088470 259.352600,216.088470 
	C259.573883,213.079941 259.762268,210.518463 259.978058,207.969849 
	C260.005463,207.982712 259.955261,207.943390 260.403595,208.010742 
	C262.863129,208.078094 264.874329,208.078094 267.033356,208.078094 
	C267.033356,205.202087 267.033356,203.114883 267.016663,201.014038 
	C267.000000,201.000381 267.028320,201.033356 267.499634,200.999023 
	C270.523895,200.993561 273.076874,201.022446 275.627380,201.028915 
	C275.624878,201.006500 275.610535,200.963654 275.566040,201.434204 
	C275.521576,203.849792 275.521576,205.794830 275.521576,207.950134 
	C280.834625,207.950134 285.718262,207.950134 291.048248,207.950134 
	C291.048248,202.815002 291.048248,197.883286 291.020996,192.975052 
	C290.993744,192.998535 290.936218,193.041763 290.936218,193.041763 
z"/>
<path fill="#E5E6E7" opacity="1.000000" stroke="none" 
	d="
M110.357040,310.053162 
	C112.906532,310.023346 115.456024,309.993561 118.478897,310.380676 
	C118.964706,313.172272 118.977135,315.546936 118.651016,318.153839 
	C118.533142,320.981934 118.753807,323.577820 118.978897,326.611267 
	C118.983322,329.161102 118.983322,331.273315 118.983322,333.992767 
	C115.577705,333.992767 112.797356,333.992767 109.573715,333.998627 
	C107.060524,333.984161 104.990608,333.963867 102.920700,333.943542 
	C102.920700,333.943542 103.045601,333.956604 103.027252,333.565094 
	C103.008904,330.919189 103.008904,328.664825 103.008904,326.033234 
	C86.922043,326.033234 71.496185,326.033234 55.618706,326.015442 
	C46.956009,326.174347 48.231937,325.247131 47.957916,332.950073 
	C47.946388,333.274139 47.957150,333.599030 47.974754,333.957916 
	C47.991982,333.992310 47.923199,333.957855 47.462296,333.958771 
	C42.126114,333.953308 37.250843,333.946930 32.289066,333.503662 
	C32.147671,330.682800 32.092781,328.298798 32.037888,325.914764 
	C32.037888,325.914764 32.033344,326.033051 32.433372,326.064209 
	C35.198734,326.095337 37.564068,326.095337 39.617256,326.095337 
	C39.617256,322.962402 39.617256,320.612823 39.617256,318.292480 
	C36.787598,318.165161 34.351528,318.055542 31.915455,317.945923 
	C31.915455,317.945953 32.036049,317.960236 32.099892,317.573608 
	C32.174400,314.783661 32.185074,312.380310 32.630875,309.988037 
	C35.174953,309.999084 37.283909,309.999084 39.989727,309.999084 
	C39.989727,307.301392 39.989727,305.186340 40.428196,302.977875 
	C43.253914,302.822449 45.641159,302.760468 47.973495,303.167664 
	C47.918579,305.884216 47.918579,308.131561 47.918579,310.368317 
	C51.019833,310.662262 53.469597,310.894440 55.885151,311.579041 
	C55.850937,313.961212 55.850937,315.891022 55.850937,317.761292 
	C71.865776,317.761292 87.377319,317.761292 103.053329,317.761292 
	C103.053329,314.879608 103.053329,312.393524 103.053329,309.907440 
	C103.053329,309.907440 103.044594,310.033783 103.441971,310.092651 
	C106.011909,310.118713 108.184479,310.085938 110.357040,310.053162 
z"/>
<path fill="#110A0B" opacity="1.000000" stroke="none" 
	d="
M102.048958,200.766159 
	C99.899651,200.766159 97.750336,200.766159 94.964951,200.766159 
	C94.964951,182.556107 94.964951,164.405045 94.964951,145.795807 
	C89.438004,145.795807 84.529671,145.795807 79.402191,145.795807 
	C79.402191,132.601135 79.402191,119.873039 79.402191,106.421616 
	C81.698845,106.421616 83.970070,106.421616 86.639542,106.226715 
	C87.037788,106.031822 87.058182,106.055199 87.015602,106.518600 
	C86.973022,117.170685 86.973022,127.359375 86.973022,137.612579 
	C90.037186,137.612579 92.250671,137.612579 94.997978,137.612579 
	C94.997978,129.506165 94.997978,121.765434 95.443947,114.050659 
	C98.275337,114.049431 100.660767,114.022240 103.043739,114.464035 
	C103.013901,143.290009 102.986519,171.647018 102.756058,200.065094 
	C102.263130,200.243530 102.095123,200.456879 102.048958,200.766159 
z"/>
<path fill="#0E0708" opacity="1.000000" stroke="none" 
	d="
M165.530685,51.079109 
	C165.530685,48.786121 165.530685,46.493134 165.530685,44.020096 
	C183.930389,44.020096 201.861694,44.020096 220.214233,44.020096 
	C220.382553,46.315697 220.547363,48.563133 220.749237,51.316303 
	C228.335373,51.316303 235.914276,51.316303 243.995987,51.316303 
	C243.995987,53.922058 243.995987,56.026604 244.002075,58.554554 
	C244.008179,58.977962 244.051910,58.933193 243.643890,59.196045 
	C235.806076,59.458900 228.376282,59.458900 220.838242,59.458900 
	C220.601776,56.539623 220.419998,54.295387 220.206635,51.661068 
	C201.909805,51.661068 183.943909,51.661068 166.010284,51.496590 
	C166.042572,51.332108 165.864975,51.046982 165.864975,51.046982 
	C165.864975,51.046982 165.530685,51.079109 165.530685,51.079109 
z"/>
<path fill="#130C0C" opacity="1.000000" stroke="none" 
	d="
M298.025513,317.989471 
	C295.881622,317.989471 293.737732,317.989471 291.169189,317.989471 
	C291.169189,313.201202 291.169189,308.318573 291.169189,303.143127 
	C288.393890,303.143127 286.032562,303.143127 283.336426,303.143127 
	C283.336426,313.285126 283.336426,323.323486 283.336426,334.004150 
	C280.945831,334.004150 278.872986,334.004150 276.249512,333.982666 
	C275.698914,333.961182 275.542175,334.024109 275.382568,333.578552 
	C275.222961,320.518921 275.222961,307.904846 275.222961,294.988098 
	C283.468872,294.988098 291.240173,294.988098 299.007751,294.993347 
	C299.003998,294.998566 299.018463,294.984344 298.970551,295.452057 
	C298.766754,303.285126 298.610870,310.650513 298.349274,317.982239 
	C298.243561,317.948639 298.025513,317.989471 298.025513,317.989471 
z"/>
<path fill="#100909" opacity="1.000000" stroke="none" 
	d="
M213.006790,310.975983 
	C213.006790,318.428558 213.006790,325.881134 213.006790,333.997589 
	C210.368027,333.997589 208.118271,333.997589 205.443268,333.994324 
	C205.018051,333.991058 205.053284,334.055725 205.028427,333.584106 
	C205.024628,320.434143 205.045670,307.755829 205.502533,294.994141 
	C215.801651,294.910828 225.664948,294.910828 235.914566,294.910828 
	C235.914566,297.355530 235.914566,299.804443 235.910675,302.434235 
	C235.906799,302.615143 236.008408,302.962463 235.541077,302.916931 
	C227.714447,302.871429 220.355148,302.871429 213.006790,302.871429 
	C213.006790,306.042450 213.006790,308.509216 213.006790,310.975983 
z"/>
<path fill="#0E0708" opacity="1.000000" stroke="none" 
	d="
M307.016785,138.014130 
	C307.016785,150.937103 307.016785,163.860092 307.016785,177.158066 
	C304.244019,177.158066 302.113800,177.158066 299.533142,177.102173 
	C299.082733,177.046295 299.041718,177.025589 298.973572,176.559357 
	C298.905426,168.684219 298.905426,161.275299 298.905426,153.677933 
	C290.864502,153.677933 283.287811,153.677933 275.528748,153.288391 
	C275.213867,150.602676 275.081390,148.306473 275.422058,146.008301 
	C283.397797,146.006317 290.900391,146.006317 298.996185,146.006317 
	C298.996185,142.844391 298.996185,140.421112 299.438293,137.986847 
	C302.236298,137.972824 304.592163,137.969772 306.955719,137.992371 
	C306.963379,138.018036 307.016785,138.014130 307.016785,138.014130 
z"/>
<path fill="#0E0708" opacity="1.000000" stroke="none" 
	d="
M181.007492,333.992279 
	C178.714478,333.992279 176.421478,333.992279 173.704605,333.992279 
	C173.587296,336.578186 173.479538,338.953461 173.356750,341.659912 
	C165.603653,341.659912 157.966461,341.659912 149.841858,341.659912 
	C149.841858,339.475830 149.841858,337.229462 149.875214,334.530518 
	C149.908569,334.077972 149.943741,334.064606 150.426941,334.038574 
	C158.148224,334.012512 165.386337,334.012512 173.116608,334.012512 
	C173.116608,325.888824 173.116608,318.316986 173.108948,310.544891 
	C173.101288,310.344604 173.011032,309.954010 173.448532,310.013824 
	C176.237625,310.070892 178.589218,310.068146 180.970398,310.033142 
	C181.000000,310.000885 180.934875,310.059204 180.963989,310.523438 
	C180.984222,318.669006 180.975342,326.350403 180.976761,334.021973 
	C180.987061,334.012146 181.007492,333.992279 181.007492,333.992279 
z"/>
<path fill="#0B0C0C" opacity="1.000000" stroke="none" 
	d="
M56.070335,326.033234 
	C71.496185,326.033234 86.922043,326.033234 103.008904,326.033234 
	C103.008904,328.664825 103.008904,330.919189 103.031075,333.627777 
	C87.676849,334.056091 72.300453,334.030212 56.483776,333.997009 
	C56.043499,333.989716 56.055504,334.057587 55.919689,333.627930 
	C55.879360,330.809906 55.974846,328.421570 56.070335,326.033234 
z"/>
<path fill="#060707" opacity="1.000000" stroke="none" 
	d="
M102.585205,309.975677 
	C103.053329,312.393524 103.053329,314.879608 103.053329,317.761292 
	C87.377319,317.761292 71.865776,317.761292 55.850937,317.761292 
	C55.850937,315.891022 55.850937,313.961212 55.992538,311.306091 
	C56.088745,310.390594 56.043350,310.200409 55.997952,310.010254 
	C71.370995,310.021454 86.744041,310.032684 102.585205,309.975677 
z"/>
<path fill="#0F0809" opacity="1.000000" stroke="none" 
	d="
M94.848976,82.821014 
	C94.848976,80.366913 94.848976,77.912811 94.848976,74.998657 
	C105.033607,74.998657 115.046417,74.998657 125.517624,74.990913 
	C125.976021,74.983170 125.954926,74.991753 126.110100,75.403152 
	C126.067421,78.027725 125.869576,80.240906 125.593201,82.480606 
	C125.514671,82.507133 125.374840,82.596184 125.007858,82.721710 
	C122.717728,82.972145 120.794571,83.097046 118.185616,83.266487 
	C118.466843,86.002464 118.723717,88.501579 118.919540,91.423096 
	C118.851593,93.830376 118.844719,95.815247 118.423279,97.947693 
	C115.671410,98.080704 113.334099,98.066132 110.970566,97.581802 
	C110.944336,92.555527 110.944336,87.998993 110.944336,82.982414 
	C105.094391,82.982414 100.036682,82.982414 94.944824,82.943390 
	C94.910675,82.904373 94.848976,82.821014 94.848976,82.821014 
z"/>
<path fill="#160F0E" opacity="1.000000" stroke="none" 
	d="
M306.930786,106.075302 
	C309.365631,106.294273 311.800446,106.513237 314.537323,106.759361 
	C314.537323,117.019989 314.537323,127.179138 314.537323,138.014206 
	C312.392944,138.014206 310.153931,138.014206 307.465881,138.014160 
	C307.016785,138.014130 306.963379,138.018036 306.956360,137.545471 
	C306.941162,126.736038 306.933044,116.399170 306.949951,106.044327 
	C306.974976,106.026352 306.930786,106.075310 306.930786,106.075302 
z"/>
<path fill="#060707" opacity="1.000000" stroke="none" 
	d="
M118.974472,326.173706 
	C118.753807,323.577820 118.533142,320.981934 119.109314,318.260590 
	C122.123428,318.102692 124.340706,318.070282 126.557983,318.037842 
	C126.557983,318.037811 126.773834,318.047668 126.878448,318.020630 
	C126.767700,320.454529 126.552345,322.915497 126.289246,325.922089 
	C129.038498,325.922089 131.420898,325.922089 133.978912,325.922089 
	C133.978912,331.382263 133.978912,336.330048 133.978912,341.752014 
	C131.701294,341.880859 129.286774,342.017456 126.462830,341.656311 
	C126.053383,336.244049 126.053383,331.329498 126.053383,326.173706 
	C123.495361,326.173706 121.234917,326.173706 118.974472,326.173706 
z"/>
<path fill="#191211" opacity="1.000000" stroke="none" 
	d="
M275.542175,334.024109 
	C275.542175,334.024109 275.698914,333.961182 275.783325,333.958923 
	C275.691223,336.401978 275.514648,338.847351 275.311920,341.655060 
	C267.676971,341.655060 260.028748,341.655060 251.819275,341.655060 
	C251.819275,339.567505 251.819275,337.333099 251.871292,334.390808 
	C251.931396,333.507233 251.939484,333.331573 252.377106,333.290924 
	C260.385132,333.625336 267.963654,333.824738 275.542175,334.024109 
z"/>
<path fill="#0E0708" opacity="1.000000" stroke="none" 
	d="
M329.995148,333.961060 
	C329.967072,336.410645 329.967072,338.884460 329.967072,341.678894 
	C322.391632,341.678894 314.712921,341.678894 306.484741,341.678894 
	C306.484741,339.441650 306.484741,337.172150 306.451385,334.497559 
	C306.418030,334.092468 306.470215,334.042572 306.954590,333.971039 
	C310.000427,333.836395 312.561951,333.773315 315.579041,333.764191 
	C320.704498,333.897583 325.374390,333.977051 330.044281,334.056488 
	C330.044281,334.056488 330.023224,333.985321 329.995148,333.961060 
z"/>
<path fill="#0E0708" opacity="1.000000" stroke="none" 
	d="
M204.992462,333.964600 
	C204.966873,336.414398 204.966873,338.890717 204.966873,341.682922 
	C197.100967,341.682922 189.273529,341.682922 181.001465,341.682922 
	C181.001465,339.414978 181.001465,337.159454 181.004486,334.448120 
	C181.007492,333.992279 180.987061,334.012146 181.429276,333.990112 
	C184.291824,333.891144 186.712158,333.814178 189.589294,333.779724 
	C195.048508,333.900085 200.050888,333.977905 205.053284,334.055725 
	C205.053284,334.055725 205.018051,333.991058 204.992462,333.964600 
z"/>
<path fill="#0E0708" opacity="1.000000" stroke="none" 
	d="
M267.982056,75.010696 
	C275.516266,75.010696 283.050476,75.010696 291.220215,75.010696 
	C291.220215,77.413048 291.220215,79.631165 291.162170,82.363045 
	C291.104126,82.876816 290.974640,83.022415 290.531494,83.012360 
	C287.716431,83.007233 285.344574,83.012169 282.509155,82.970161 
	C276.989319,82.943581 271.933075,82.963951 266.972656,82.540543 
	C267.084656,79.956688 267.100830,77.816597 267.271545,75.578476 
	C267.651520,75.371315 267.836823,75.214729 267.982056,75.010696 
z"/>
<path fill="#CCCCCD" opacity="1.000000" stroke="none" 
	d="
M118.978897,326.611267 
	C121.234917,326.173706 123.495361,326.173706 126.053383,326.173706 
	C126.053383,331.329498 126.053383,336.244049 126.001282,341.628906 
	C125.949181,342.099213 125.981194,341.987488 125.570015,341.912170 
	C120.242363,341.887543 115.325890,341.938263 110.409416,341.988953 
	C110.409416,341.988953 110.513626,341.985474 110.554344,341.584747 
	C110.402374,338.786926 110.209694,336.389862 110.017006,333.992767 
	C112.797356,333.992767 115.577705,333.992767 118.983322,333.992767 
	C118.983322,331.273315 118.983322,329.161102 118.978897,326.611267 
z"/>
<path fill="#0E0708" opacity="1.000000" stroke="none" 
	d="
M87.046219,106.041840 
	C87.054649,98.490097 87.054649,90.928337 87.054649,82.786278 
	C89.475670,82.786278 91.713753,82.786278 94.400406,82.803650 
	C94.848976,82.821014 94.910675,82.904373 94.910767,83.412201 
	C94.862518,91.247871 94.814171,98.575714 94.346161,105.939209 
	C91.637062,106.001640 89.347626,106.028419 87.058182,106.055206 
	C87.058182,106.055199 87.037788,106.031822 87.046219,106.041840 
z"/>
<path fill="#D4CBAA" opacity="1.000000" stroke="none" 
	d="
M213.473694,310.938782 
	C213.006790,308.509216 213.006790,306.042450 213.006790,302.871429 
	C220.355148,302.871429 227.714447,302.871429 235.508911,303.365051 
	C235.911697,306.246155 235.879318,308.633667 235.846954,311.021149 
	C228.544830,310.981293 221.242706,310.941437 213.473694,310.938782 
z"/>
<path fill="#352E2B" opacity="1.000000" stroke="none" 
	d="
M102.342117,201.117691 
	C102.095123,200.456879 102.263130,200.243530 103.198433,200.098877 
	C105.912971,200.030838 107.982056,199.990082 110.193649,200.061035 
	C110.336151,200.172729 110.639816,200.370026 110.710739,200.787262 
	C110.948738,203.413513 111.115799,205.622543 111.280655,207.802399 
	C114.083504,208.015518 116.357468,208.188431 118.732452,208.512115 
	C118.833473,208.662903 119.068840,208.939240 119.014511,209.407669 
	C118.971840,212.101959 118.983482,214.327820 118.995132,216.553680 
	C118.995132,216.553680 118.848267,216.964935 118.733337,216.938568 
	C116.139900,216.769547 113.661385,216.626907 110.602325,216.450867 
	C110.454857,214.036407 110.308800,211.645065 110.143326,208.935822 
	C107.772614,208.769806 105.522430,208.612244 102.945213,208.431778 
	C102.838867,206.042816 102.737076,203.756012 102.342117,201.117691 
z"/>
<path fill="#403936" opacity="1.000000" stroke="none" 
	d="
M165.036316,51.164558 
	C165.530685,51.079109 165.864975,51.046982 165.864975,51.046982 
	C165.864975,51.046982 166.042572,51.332108 165.939209,51.957413 
	C165.552048,60.413631 167.291458,59.743866 158.331757,59.804710 
	C155.545319,59.823627 152.759476,59.930195 149.764053,59.935913 
	C149.250580,59.760124 149.080139,59.541031 149.043411,59.217907 
	C149.373810,56.832943 149.704193,54.447975 150.147217,51.250011 
	C154.827301,51.250011 159.684631,51.250011 165.036316,51.164558 
z"/>
<path fill="#121313" opacity="1.000000" stroke="none" 
	d="
M48.028408,302.698486 
	C45.641159,302.760468 43.253914,302.822449 39.987450,302.885620 
	C36.723392,302.736847 34.338558,302.586945 31.956104,302.406036 
	C31.958488,302.375000 32.008270,302.412933 32.008270,302.412933 
	C32.008270,299.929230 32.008270,297.445526 32.008270,294.708069 
	C37.350185,294.708069 42.445526,294.708069 48.020035,294.708069 
	C48.020035,296.926941 48.020035,299.041260 47.939148,301.770294 
	C47.858265,302.385010 48.028408,302.698486 48.028408,302.698486 
z"/>
<path fill="#1D1515" opacity="1.000000" stroke="none" 
	d="
M306.470215,334.042572 
	C306.470215,334.042572 306.418030,334.092468 306.414368,334.059204 
	C303.960022,334.025970 301.509369,334.025970 298.607574,334.025970 
	C298.607574,328.673462 298.607574,323.718323 298.316528,318.376343 
	C298.025513,317.989471 298.243561,317.948639 298.824341,318.003448 
	C301.881897,318.090668 304.358734,318.123108 306.888000,318.074799 
	C306.940430,317.994049 306.848114,318.158203 306.859131,318.614227 
	C306.736816,324.061035 306.603546,329.051788 306.470215,334.042572 
z"/>
<path fill="#0E0708" opacity="1.000000" stroke="none" 
	d="
M243.984131,58.998009 
	C249.022064,59.018059 254.084030,59.018059 259.831604,59.018059 
	C259.831604,61.690411 259.831604,63.911568 259.591248,66.505890 
	C259.350861,66.879059 258.892395,67.072662 258.434143,67.110649 
	C253.402985,67.148636 248.830063,67.148636 244.051910,67.148636 
	C244.051910,64.090782 244.051910,61.511986 244.051910,58.933193 
	C244.051910,58.933193 244.008179,58.977962 243.984131,58.998009 
z"/>
<path fill="#0E0F0F" opacity="1.000000" stroke="none" 
	d="
M31.572647,302.435486 
	C32.008270,302.412933 31.958488,302.375000 31.990372,302.884766 
	C32.080086,305.588684 32.137917,307.782837 32.195747,309.976990 
	C32.185074,312.380310 32.174400,314.783661 32.101528,317.634277 
	C29.582153,318.081604 27.124979,318.081604 24.408304,318.081604 
	C24.408304,312.968353 24.408304,308.068970 24.408304,302.458069 
	C26.628918,302.458069 28.882969,302.458069 31.572647,302.435486 
z"/>
<path fill="#0E0F0F" opacity="1.000000" stroke="none" 
	d="
M47.946377,342.020264 
	C47.946377,344.464722 47.946377,346.909180 47.946377,349.602112 
	C42.663609,349.602112 37.630424,349.602112 31.989668,349.602112 
	C31.989668,347.344269 31.989668,345.103180 31.990707,342.433777 
	C31.991749,342.005432 31.942606,342.052551 32.410412,341.994873 
	C37.939571,341.975067 43.000927,342.013000 48.028603,342.061035 
	C47.994926,342.071106 47.946377,342.020264 47.946377,342.020264 
z"/>
<path fill="#231C1A" opacity="1.000000" stroke="none" 
	d="
M235.898773,311.475525 
	C235.879318,308.633667 235.911697,306.246155 235.976227,303.410583 
	C236.008408,302.962463 235.906799,302.615143 236.364197,302.410889 
	C239.047821,302.206604 241.274033,302.206604 243.987091,302.206604 
	C243.987091,307.963043 243.987091,313.003906 243.956421,318.091370 
	C243.925751,318.138000 243.814499,318.129425 243.814499,318.129425 
	C241.391708,318.129425 238.968918,318.129425 235.950607,318.129425 
	C235.950607,316.030518 235.950607,313.980194 235.898773,311.475525 
z"/>
<path fill="#0E0F0F" opacity="1.000000" stroke="none" 
	d="
M31.586435,325.947327 
	C32.092781,328.298798 32.147671,330.682800 32.198273,333.946899 
	C32.110188,337.235474 32.026398,339.644012 31.942606,342.052551 
	C31.942606,342.052551 31.991749,342.005432 32.016106,341.981537 
	C29.585960,341.957642 27.131464,341.957642 24.412910,341.957642 
	C24.412910,336.690247 24.412910,331.650330 24.412910,325.979858 
	C26.648142,325.979858 28.891562,325.979858 31.586435,325.947327 
z"/>
<path fill="#100909" opacity="1.000000" stroke="none" 
	d="
M251.947586,333.155914 
	C251.939484,333.331573 251.931396,333.507233 251.925262,333.946655 
	C249.358246,334.088196 246.789276,333.966003 243.788666,333.823303 
	C243.788666,328.759491 243.788666,323.902771 243.801575,318.587769 
	C243.814499,318.129425 243.925751,318.138000 244.405060,318.124390 
	C247.133286,318.110779 249.382187,318.110779 251.947586,318.110779 
	C251.947586,323.600922 251.947586,328.378418 251.947586,333.155914 
z"/>
<path fill="#0E0708" opacity="1.000000" stroke="none" 
	d="
M148.574310,59.195328 
	C149.080139,59.541031 149.250580,59.760124 149.774841,60.391426 
	C149.994919,62.826473 149.994919,64.745285 149.994919,67.047203 
	C144.784500,67.047203 139.939529,67.047203 134.855133,67.008263 
	C134.615723,66.969322 134.134048,67.027191 134.134048,67.027191 
	C134.134048,64.572762 134.134048,62.118328 134.134048,59.172752 
	C138.916367,59.172752 143.510788,59.172752 148.574310,59.195328 
z"/>
<path fill="#262627" opacity="1.000000" stroke="none" 
	d="
M126.489700,301.793945 
	C126.385895,302.212311 125.989639,302.313812 125.426437,302.434204 
	C122.602943,302.657806 120.342667,302.761078 118.082382,302.864319 
	C115.777908,302.718597 113.473434,302.572876 110.778061,302.402405 
	C110.778061,299.875031 110.778061,297.362671 110.778061,294.608002 
	C115.932014,294.608002 120.862015,294.608002 126.593506,294.608002 
	C126.593506,296.898407 126.593506,299.136993 126.489700,301.793945 
z"/>
<path fill="#0F0809" opacity="1.000000" stroke="none" 
	d="
M299.165222,90.850357 
	C301.472015,90.850357 303.778839,90.850357 306.843964,90.850357 
	C306.843964,95.729691 306.843964,100.431770 306.887390,105.604576 
	C306.930786,106.075310 306.974976,106.026352 306.513947,106.012497 
	C303.725983,105.984810 301.399048,105.970970 299.047607,105.525528 
	C299.004211,103.076576 298.985291,101.059227 298.982330,98.595322 
	C298.991425,95.773300 298.984558,93.397827 299.024414,90.979156 
	C299.071106,90.935944 299.165222,90.850357 299.165222,90.850357 
z"/>
<path fill="#121313" opacity="1.000000" stroke="none" 
	d="
M110.429062,342.453247 
	C115.325890,341.938263 120.242363,341.887543 125.627441,341.921051 
	C127.264595,349.901031 127.160767,350.023224 119.278183,350.023743 
	C116.518578,350.023926 113.758972,350.023773 110.448700,350.023773 
	C110.448700,347.402832 110.448700,345.160187 110.429062,342.453247 
z"/>
<path fill="#D0D0D1" opacity="1.000000" stroke="none" 
	d="
M118.282593,303.139648 
	C120.342667,302.761078 122.602943,302.657806 125.226776,302.389832 
	C125.794304,307.203400 125.998276,312.181732 126.380112,317.598938 
	C124.340706,318.070282 122.123428,318.102692 119.447861,318.028381 
	C118.977135,315.546936 118.964706,313.172272 118.906006,310.347961 
	C118.734100,307.737244 118.608452,305.576080 118.282593,303.139648 
z"/>
<path fill="#403936" opacity="1.000000" stroke="none" 
	d="
M258.892395,67.072662 
	C258.892395,67.072662 259.350861,66.879059 259.589111,66.950699 
	C262.246521,67.022339 264.665619,67.022339 267.748016,67.022339 
	C267.748016,69.677750 267.748016,71.915680 267.865051,74.582153 
	C267.836823,75.214729 267.651520,75.371315 266.843475,75.472176 
	C264.045288,75.463905 261.829773,75.463905 259.507935,75.463905 
	C259.268372,72.198311 259.080383,69.635490 258.892395,67.072662 
z"/>
<path fill="#231C1A" opacity="1.000000" stroke="none" 
	d="
M133.682861,67.065552 
	C134.134048,67.027191 134.615723,66.969322 134.609192,67.364265 
	C134.413147,70.188110 134.223648,72.617020 133.588135,75.103821 
	C130.746384,75.105072 128.350662,75.048409 125.954926,74.991753 
	C125.954926,74.991753 125.976021,74.983170 125.986023,74.988503 
	C125.996033,72.559784 125.996033,70.125740 125.996033,67.103920 
	C128.742065,67.103920 130.986877,67.103920 133.682861,67.065552 
z"/>
<path fill="#343535" opacity="1.000000" stroke="none" 
	d="
M47.973495,303.167664 
	C48.028408,302.698486 47.858265,302.385010 47.917343,302.216736 
	C50.557621,302.219818 53.138821,302.391235 56.083809,302.586792 
	C56.083809,304.914124 56.083809,307.017334 56.040878,309.565369 
	C56.043350,310.200409 56.088745,310.390594 56.026756,310.853699 
	C53.469597,310.894440 51.019833,310.662262 47.918579,310.368317 
	C47.918579,308.131561 47.918579,305.884216 47.973495,303.167664 
z"/>
<path fill="#160F0E" opacity="1.000000" stroke="none" 
	d="
M299.087524,177.068756 
	C299.092285,179.564621 299.092285,182.038025 299.092285,185.056747 
	C296.496033,185.056747 294.220795,185.056747 291.482056,185.035706 
	C291.018585,185.014679 291.025879,185.038010 291.054352,184.590836 
	C291.082825,181.932266 291.082825,179.720886 291.082825,177.025589 
	C294.218323,177.025589 296.630005,177.025589 299.041718,177.025589 
	C299.041718,177.025589 299.082733,177.046295 299.087524,177.068756 
z"/>
<path fill="#0E0F0F" opacity="1.000000" stroke="none" 
	d="
M31.930250,318.395660 
	C34.351528,318.055542 36.787598,318.165161 39.617256,318.292480 
	C39.617256,320.612823 39.617256,322.962402 39.617256,326.095337 
	C37.564068,326.095337 35.198734,326.095337 32.374447,326.069641 
	C31.925344,323.644440 31.935196,321.244904 31.930250,318.395660 
z"/>
<path fill="#0F0809" opacity="1.000000" stroke="none" 
	d="
M291.170471,82.805458 
	C293.682861,82.734100 296.128876,82.734100 299.069611,82.734100 
	C299.069611,85.412010 299.069611,87.686829 299.117432,90.406006 
	C299.165222,90.850357 299.071106,90.935944 298.581604,90.980118 
	C295.726624,91.017471 293.361176,91.010651 290.997803,90.995079 
	C290.999939,90.986328 291.016235,90.978088 291.012878,90.536789 
	C290.997894,87.737801 290.986267,85.380112 290.974640,83.022415 
	C290.974640,83.022415 291.104126,82.876816 291.170471,82.805458 
z"/>
<path fill="#060707" opacity="1.000000" stroke="none" 
	d="
M56.014923,333.970459 
	C55.986351,336.399048 55.986351,338.846924 55.986351,342.000244 
	C53.590977,342.000244 51.225887,342.000244 48.403587,342.010254 
	C47.946377,342.020264 47.994926,342.071106 47.941864,341.618774 
	C47.900269,338.763580 47.911732,336.360718 47.923199,333.957855 
	C47.923199,333.957855 47.991982,333.992310 48.425072,333.930969 
	C51.257278,333.932312 53.656391,333.994934 56.055504,334.057556 
	C56.055504,334.057587 56.043499,333.989716 56.014923,333.970459 
z"/>
<path fill="#110B0B" opacity="1.000000" stroke="none" 
	d="
M291.030945,185.025177 
	C291.114929,187.423874 291.186584,189.812088 291.097229,192.621033 
	C290.936218,193.041763 290.993744,192.998535 290.576813,192.997864 
	C287.799866,193.076706 285.439819,193.156219 283.117432,192.992279 
	C283.155090,192.748840 283.119781,192.257431 283.121460,191.798370 
	C283.123169,189.390121 283.123169,187.440933 283.123169,185.038010 
	C286.115051,185.038010 288.570465,185.038010 291.025879,185.038010 
	C291.025879,185.038010 291.018585,185.014679 291.030945,185.025177 
z"/>
<path fill="#060707" opacity="1.000000" stroke="none" 
	d="
M109.573715,333.998627 
	C110.209694,336.389862 110.402374,338.786926 110.559151,341.636658 
	C108.087990,342.089325 105.652748,342.089325 102.843163,342.089325 
	C102.843163,339.372711 102.843163,337.119110 102.881927,334.404541 
	C104.990608,333.963867 107.060524,333.984161 109.573715,333.998627 
z"/>
<path fill="#060707" opacity="1.000000" stroke="none" 
	d="
M110.416489,309.600983 
	C108.184479,310.085938 106.011909,310.118713 103.378838,310.097351 
	C102.918327,307.768494 102.918327,305.493744 102.918327,302.858948 
	C105.410950,302.858948 107.755737,302.858948 110.475945,302.858948 
	C110.475945,304.942474 110.475945,307.045654 110.416489,309.600983 
z"/>
<path fill="#D0C6A3" opacity="1.000000" stroke="none" 
	d="
M134.034149,75.045921 
	C134.223648,72.617020 134.413147,70.188110 134.848602,67.403206 
	C139.939529,67.047203 144.784500,67.047203 149.994919,67.047203 
	C149.994919,64.745285 149.994919,62.826473 149.984131,60.452148 
	C152.759476,59.930195 155.545319,59.823627 158.331757,59.804710 
	C167.291458,59.743866 165.552048,60.413631 165.906921,52.121895 
	C183.943909,51.661068 201.909805,51.661068 220.206635,51.661068 
	C220.419998,54.295387 220.601776,56.539623 220.838242,59.458900 
	C228.376282,59.458900 235.806076,59.458900 243.643890,59.196045 
	C244.051910,61.511986 244.051910,64.090782 244.051910,67.148636 
	C248.830063,67.148636 253.402985,67.148636 258.434143,67.110649 
	C259.080383,69.635490 259.268372,72.198311 259.507935,75.463905 
	C261.829773,75.463905 264.045288,75.463905 266.688904,75.570206 
	C267.100830,77.816597 267.084656,79.956688 267.011536,82.544456 
	C266.954559,82.992134 266.972290,82.915543 266.510773,82.871307 
	C263.959503,82.827072 261.869751,82.827072 260.057739,82.827072 
	C260.057739,101.586952 260.057739,119.615265 260.057739,137.798370 
	C262.754639,137.798370 264.904999,137.798370 267.101471,138.252213 
	C267.147614,140.941910 267.147614,143.177780 267.147614,145.592926 
	C270.164978,145.771255 272.581207,145.914047 274.999725,146.030487 
	C275.001984,146.004105 274.948914,146.010284 274.948914,146.010284 
	C275.081390,148.306473 275.213867,150.602676 275.564819,153.685898 
	C275.783295,164.519608 275.783295,174.566284 275.783295,184.591278 
	C272.053101,184.939362 269.803497,185.149292 267.028320,185.408264 
	C267.028320,190.803864 267.028320,195.918610 267.028320,201.033356 
	C267.028320,201.033356 267.000000,201.000381 266.569366,200.981552 
	C264.219238,200.962723 262.299744,200.962723 259.955261,200.962723 
	C259.955261,203.734512 259.955261,205.838959 259.955261,207.943390 
	C259.955261,207.943390 260.005463,207.982712 259.533997,207.961777 
	C256.857330,208.088898 254.652130,208.236954 251.971573,208.416931 
	C251.971573,211.172684 251.971573,213.564255 251.971573,215.955826 
	C249.506210,216.078262 247.040863,216.200684 244.264175,216.338577 
	C244.093430,218.888565 243.931931,221.300598 243.761627,223.844177 
	C207.171158,223.844177 170.784424,223.844177 134.028198,223.844177 
	C134.028198,221.275360 134.028198,219.009476 134.028198,216.138412 
	C131.732040,216.138412 129.795837,216.138412 127.380005,215.646988 
	C127.775284,210.021576 125.628120,207.952789 120.527176,208.854156 
	C120.050919,208.938324 119.555412,208.913467 119.068840,208.939240 
	C119.068840,208.939240 118.833473,208.662903 118.812767,208.052460 
	C119.039520,199.717255 118.977165,199.663162 110.639816,200.370026 
	C110.639816,200.370026 110.336151,200.172729 110.227585,199.597229 
	C110.124969,186.907013 110.128265,174.792297 110.137802,162.677597 
	C110.144363,154.350708 110.148239,154.350708 118.476593,153.756531 
	C118.643700,153.846329 118.949028,154.071548 118.914612,154.516479 
	C118.970673,156.877594 119.061142,158.793777 119.165306,161.000046 
	C124.494072,161.000046 129.279114,161.000046 134.049774,161.451630 
	C134.035400,164.172791 134.035400,166.442383 134.035400,168.786194 
	C131.291016,169.068481 129.211563,169.282394 127.068550,169.502823 
	C127.068550,177.432541 127.068550,184.985382 127.068550,192.703018 
	C129.473618,192.921341 131.548904,193.109741 134.137360,193.344711 
	C134.137360,198.378174 134.137360,203.117020 134.137360,208.340332 
	C139.604141,208.340332 144.529816,208.340332 149.644196,208.340332 
	C149.913589,211.204880 150.138351,213.594818 150.362122,215.974091 
	C160.703827,215.974091 170.613541,215.974091 180.771866,215.974091 
	C181.023514,213.308380 181.249741,210.912109 181.530273,207.940552 
	C186.719757,207.940552 191.606995,207.940552 197.077896,207.940552 
	C197.077896,202.606949 197.077896,197.881912 197.077896,193.158554 
	C199.945129,192.927505 202.204315,192.745438 204.566238,192.555115 
	C204.566238,184.609833 204.566238,177.065353 204.566238,169.401291 
	C201.899078,169.181534 199.650055,168.996231 197.070724,168.783722 
	C197.070724,166.161896 197.070724,163.866196 197.053833,161.576965 
	C197.036957,161.583420 197.013458,161.606461 197.438690,161.451691 
	C202.751862,161.296906 207.639786,161.296906 212.561005,161.296906 
	C212.852264,158.378860 213.114136,155.755295 213.803497,153.136627 
	C215.996384,153.141541 217.761810,153.141541 219.769409,153.141541 
	C219.769409,145.170990 219.769409,137.841766 219.769409,130.230011 
	C217.307770,130.110352 215.195175,130.007675 213.008469,129.480103 
	C212.175644,126.592911 214.740295,122.455513 209.768509,122.124397 
	C205.706451,121.853882 201.612045,122.069351 196.994675,122.069351 
	C196.994675,125.121582 196.994675,127.556282 196.544998,130.016022 
	C193.866425,130.041061 191.637512,130.041061 188.985184,130.041061 
	C188.985184,138.323883 188.985184,145.872253 189.000305,153.422638 
	C189.015411,153.424637 189.048904,153.430969 188.587723,153.523041 
	C172.735229,153.589630 157.343903,153.564148 141.967163,153.548676 
	C141.981720,153.558670 142.009964,153.564255 142.029251,153.060516 
	C142.048538,145.193207 142.048538,137.829651 142.048538,129.991302 
	C138.885391,129.991302 136.447296,129.991302 134.008026,129.988861 
	C134.006836,129.986420 134.019379,129.977142 134.040894,129.528748 
	C133.958771,126.845947 133.855133,124.611526 133.736359,122.050476 
	C130.681198,122.050476 128.211060,122.050156 125.740921,122.050529 
	C117.929749,122.051697 117.929749,122.051804 117.785019,130.041748 
	C115.097351,130.022644 112.871178,130.022644 110.801590,130.022644 
	C110.801590,124.132370 110.801590,118.967636 110.821609,113.379135 
	C110.893509,110.969521 110.945374,108.983665 111.425720,106.960693 
	C114.131439,106.954422 116.408691,106.985260 118.670700,107.471085 
	C118.655464,109.835770 118.655464,111.745468 118.655464,113.796509 
	C121.507492,113.796509 123.705208,113.796509 126.044876,113.796509 
	C126.044876,111.392136 126.044876,109.339302 126.044876,106.685913 
	C123.517929,106.685913 121.267059,106.685913 118.998413,106.249130 
	C118.933037,103.141594 118.885445,100.470856 118.837845,97.800110 
	C118.844719,95.815247 118.851593,93.830376 119.367813,91.418121 
	C121.799484,90.990730 123.721802,90.990730 126.401619,90.990730 
	C125.995155,87.667625 125.684990,85.131905 125.374832,82.596184 
	C125.374840,82.596184 125.514671,82.507133 126.022850,82.725258 
	C128.812744,82.943382 131.094467,82.943382 134.034149,82.943382 
	C134.034149,79.923698 134.034149,77.484810 134.034149,75.045921 
M204.997299,107.856750 
	C204.997299,109.787392 204.997299,111.718040 204.997299,113.741211 
	C207.868652,113.741211 210.206711,113.741211 212.544922,113.741211 
	C212.544922,111.266106 212.544922,109.201729 212.544922,106.612961 
	C209.777328,106.762993 207.359955,106.894035 205.048615,106.120277 
	C205.048615,103.691261 205.048615,101.262245 205.048615,98.535530 
	C202.183594,98.535530 199.816422,98.535530 197.322723,98.535530 
	C197.322723,101.350426 197.322723,103.857613 197.322723,106.559296 
	C200.134293,106.699631 202.578186,106.821609 204.997299,107.856750 
M133.921310,105.363396 
	C133.921310,103.138069 133.921310,100.912750 133.921310,98.638977 
	C131.085358,98.638977 128.847733,98.638977 126.519363,98.638977 
	C126.519363,101.330093 126.519363,103.687523 126.519363,106.378563 
	C129.051926,106.260033 131.177216,106.160568 133.921310,105.363396 
z"/>
<path fill="#D0C6A3" opacity="1.000000" stroke="none" 
	d="
M205.028427,333.584106 
	C200.050888,333.977905 195.048508,333.900085 189.557983,333.329620 
	C189.069839,325.443451 189.069839,318.049866 189.069839,310.059204 
	C185.832657,310.059204 183.383759,310.059204 180.934875,310.059204 
	C180.934875,310.059204 181.000000,310.000885 181.010422,309.584503 
	C181.020844,307.280823 181.020844,305.393494 181.020844,303.213867 
	C178.069199,303.059387 175.686340,302.934692 173.188141,302.644348 
	C173.072815,302.478668 172.896378,302.115570 172.954376,301.665894 
	C173.012375,299.310516 173.012375,297.404846 173.012375,295.249176 
	C170.391632,295.059296 168.312500,294.908661 166.143036,294.331970 
	C165.879257,291.679688 165.705780,289.453430 165.493668,286.731567 
	C160.146820,286.731567 155.276581,286.731567 150.315598,286.731567 
	C150.063934,283.963715 149.860321,281.724396 149.608780,278.957916 
	C146.920746,278.957916 144.485733,278.957916 142.050735,278.957916 
	C142.050735,278.957916 141.999161,278.996887 142.029892,278.507172 
	C142.067261,265.392578 142.073883,252.767670 142.080521,240.142776 
	C146.764709,240.105911 151.448898,240.069031 156.604340,240.540741 
	C157.110306,243.312729 157.145035,245.576111 157.128723,248.290939 
	C156.985809,256.078644 156.985855,256.081329 164.160172,255.954834 
	C164.804291,255.943466 165.447281,255.867767 166.528732,255.848572 
	C168.876999,255.788513 170.787308,255.701843 173.068237,255.598343 
	C173.068237,250.054977 173.068237,245.093719 173.068237,240.132462 
	C194.169647,240.072235 215.271072,240.009384 236.372482,239.953720 
	C241.332260,239.940643 246.292099,239.951767 251.571243,239.951767 
	C251.746490,237.271805 251.903610,234.868958 252.077866,232.203873 
	C254.488968,232.068726 256.758575,231.941498 259.271729,231.800644 
	C259.448669,229.405472 259.616974,227.127472 259.816467,224.427139 
	C262.149170,224.276459 264.386230,224.131958 266.936310,223.967239 
	C267.076019,221.562256 267.207794,219.293747 267.395142,216.068542 
	C277.586456,216.068542 287.801453,216.068542 298.487854,216.017517 
	C298.959229,215.966476 298.980988,215.987457 298.975586,216.437164 
	C298.970184,219.126419 298.970184,221.365997 298.970184,223.998810 
	C301.797852,223.998810 303.900665,223.998810 306.028625,224.445740 
	C306.053802,227.145615 306.053802,229.398575 306.053802,231.991043 
	C309.567413,231.991043 312.208740,231.991043 314.850067,231.991043 
	C314.849518,239.359741 314.848938,246.728455 314.878052,255.010223 
	C314.907745,258.151947 314.907745,260.380646 314.907745,263.016907 
	C317.777039,263.016907 319.877045,263.016907 321.977051,263.016907 
	C322.050293,273.274384 322.123535,283.531860 322.168396,294.698944 
	C322.140045,297.852814 322.140045,300.097076 322.140045,302.990021 
	C325.156830,302.990021 327.584625,302.990021 330.012421,302.990021 
	C330.054199,313.031952 330.095947,323.073853 330.091003,333.586121 
	C325.374390,333.977051 320.704498,333.897583 315.524536,333.318665 
	C315.014465,328.068451 315.014465,323.317688 315.014465,318.158203 
	C311.747223,318.158203 309.297668,318.158203 306.848114,318.158203 
	C306.848114,318.158203 306.940430,317.994049 306.921021,317.595825 
	C306.901581,309.967224 306.901581,302.736847 306.901581,294.984344 
	C303.884766,294.984344 301.451630,294.984344 299.018463,294.984344 
	C299.018463,294.984344 299.003998,294.998566 299.018616,294.544922 
	C298.900574,291.857483 298.767914,289.623718 298.606964,286.914062 
	C293.285583,286.914062 288.418060,286.914062 283.352966,286.914062 
	C283.086761,284.064667 282.865753,281.699341 282.617310,279.040222 
	C280.106506,279.040222 277.989441,279.040222 275.874268,278.599030 
	C275.863495,270.471832 275.311890,270.042938 267.023682,271.844818 
	C267.023682,274.142365 267.023682,276.585510 266.576904,279.020020 
	C263.745331,279.016357 261.360565,279.021362 258.987000,278.575653 
	C258.998199,275.899323 258.998199,273.673737 258.998199,271.383789 
	C256.309692,271.383789 254.422043,271.383789 252.011490,271.383789 
	C252.011490,274.120758 252.011490,276.545227 252.004425,279.239502 
	C251.992737,279.689301 251.988098,279.869202 251.540222,280.033325 
	C248.728577,280.002625 246.360168,279.987640 243.986649,279.705261 
	C243.974014,279.259705 243.966476,279.081543 243.955338,278.465088 
	C243.951721,275.819580 243.951721,273.612366 243.951721,271.407166 
	C240.877716,271.407166 238.671310,271.407166 235.972244,271.407166 
	C235.972244,274.178833 235.972244,276.600464 235.988190,279.011810 
	C236.004135,279.001556 236.027313,278.971161 235.586548,278.982178 
	C233.088379,278.984772 231.030975,278.976410 228.984772,278.984009 
	C228.995987,278.999969 229.028473,279.020996 228.981171,278.574158 
	C228.838074,270.224030 228.252777,269.784668 219.970810,271.934052 
	C219.970810,274.221161 219.970810,276.657715 219.982010,279.263855 
	C219.993210,279.433411 220.042313,279.769775 219.597885,279.829834 
	C217.236176,280.021790 215.318878,280.153656 213.305283,280.292114 
	C213.004807,282.692322 212.749893,284.728607 212.499710,286.727112 
	C209.823517,286.956421 207.593643,287.147461 205.066711,287.363983 
	C205.066711,290.199341 205.066711,292.638428 205.066711,295.077484 
	C205.045670,307.755829 205.024628,320.434143 205.028427,333.584106 
z"/>
<path fill="#907F63" opacity="1.000000" stroke="none" 
	d="
M142.086319,279.428345 
	C144.485733,278.957916 146.920746,278.957916 149.608780,278.957916 
	C149.860321,281.724396 150.063934,283.963715 150.315598,286.731567 
	C155.276581,286.731567 160.146820,286.731567 165.493668,286.731567 
	C165.705780,289.453430 165.879257,291.679688 166.044327,294.432831 
	C166.035919,294.959717 165.834869,295.155579 165.398438,295.056702 
	C162.724503,294.957794 160.487000,294.957794 158.347702,294.957794 
	C156.736145,302.994141 156.889832,303.160278 165.187592,303.217041 
	C165.467545,310.961243 165.467545,310.961243 173.116608,310.745178 
	C173.116608,318.316986 173.116608,325.888824 173.116608,334.012512 
	C165.386337,334.012512 158.148224,334.012512 150.439575,334.024658 
	C149.969040,323.785187 149.969040,313.533569 149.969040,303.366028 
	C142.138382,302.293976 142.140274,302.293976 142.137589,294.348083 
	C142.135956,289.531647 142.127365,284.715240 142.086319,279.428345 
z"/>
<path fill="#928164" opacity="1.000000" stroke="none" 
	d="
M267.499634,200.999023 
	C267.028320,195.918610 267.028320,190.803864 267.028320,185.408264 
	C269.803497,185.149292 272.053101,184.939362 275.783295,184.591278 
	C275.783295,174.566284 275.783295,164.519608 275.747223,154.075439 
	C283.287811,153.677933 290.864502,153.677933 298.905426,153.677933 
	C298.905426,161.275299 298.905426,168.684219 298.973572,176.559357 
	C296.630005,177.025589 294.218323,177.025589 291.082825,177.025589 
	C291.082825,179.720886 291.082825,181.932266 291.054352,184.590836 
	C288.570465,185.038010 286.115051,185.038010 283.123169,185.038010 
	C283.123169,187.440933 283.123169,189.390121 282.677185,191.835876 
	C274.268890,192.373215 273.888428,192.875717 275.629852,201.051331 
	C273.076874,201.022446 270.523895,200.993561 267.499634,200.999023 
z"/>
<path fill="#CEC4A2" opacity="1.000000" stroke="none" 
	d="
M298.949341,215.954865 
	C298.912537,213.910828 298.885620,211.878372 299.349792,209.363892 
	C306.470490,208.798706 306.465851,208.798401 306.918579,202.065643 
	C306.950684,201.588181 307.123810,201.120224 307.231384,200.647842 
	C312.124146,200.647842 317.016937,200.647842 322.217743,200.647842 
	C322.417267,203.206512 322.591644,205.442841 322.802643,208.149246 
	C325.027679,208.329102 327.242859,208.508148 329.984833,208.729767 
	C329.984833,210.913818 329.984833,212.993408 329.500427,215.549149 
	C326.799713,216.128937 324.583435,216.232559 322.295532,216.339539 
	C322.295532,219.380646 322.295532,221.820068 322.295532,224.259506 
	C322.295532,224.259506 322.164429,224.027817 321.729889,224.076523 
	C316.460663,224.095352 311.625946,224.065460 306.839996,223.587830 
	C306.964233,216.176804 306.964233,216.177475 299.952545,216.052048 
	C299.628418,216.046265 299.304840,216.009689 298.980988,215.987457 
	C298.980988,215.987457 298.959229,215.966476 298.949341,215.954865 
z"/>
<path fill="#928164" opacity="1.000000" stroke="none" 
	d="
M141.626007,240.092026 
	C142.073883,252.767670 142.067261,265.392578 142.051224,278.482513 
	C139.577454,278.947571 137.113083,278.947571 134.333481,278.947571 
	C134.333481,265.980652 134.333481,253.311203 134.333481,240.041275 
	C136.658737,240.041275 138.915115,240.041275 141.626007,240.092026 
z"/>
<path fill="#FCFCFC" opacity="1.000000" stroke="none" 
	d="
M283.079803,193.235733 
	C285.439819,193.156219 287.799866,193.076706 290.604065,192.974380 
	C291.048248,197.883286 291.048248,202.815002 291.048248,207.950134 
	C285.718262,207.950134 280.834625,207.950134 275.521576,207.950134 
	C275.521576,205.794830 275.521576,203.849792 276.041351,201.407242 
	C278.643219,200.909729 280.725311,200.909729 283.079803,200.909729 
	C283.079803,198.044586 283.079803,195.640167 283.079803,193.235733 
z"/>
<path fill="#97896D" opacity="1.000000" stroke="none" 
	d="
M306.791260,224.035583 
	C311.625946,224.065460 316.460663,224.095352 321.777527,224.200806 
	C322.259674,226.583145 322.259674,228.889908 322.259674,231.965424 
	C319.917175,231.965424 317.843384,231.965424 315.309814,231.978241 
	C312.208740,231.991043 309.567413,231.991043 306.053802,231.991043 
	C306.053802,229.398575 306.053802,227.145615 306.226044,224.444946 
	C306.398285,223.997238 306.791260,224.035583 306.791260,224.035583 
z"/>
<path fill="#EED154" opacity="1.000000" stroke="none" 
	d="
M172.619873,240.078735 
	C173.068237,245.093719 173.068237,250.054977 173.068237,255.598343 
	C170.787308,255.701843 168.876999,255.788513 166.493347,255.417206 
	C165.916412,252.559128 165.812775,250.159073 165.773102,247.343414 
	C165.855209,244.676010 165.873352,242.424210 165.891479,240.172394 
	C167.984833,240.123276 170.078171,240.074158 172.619873,240.078735 
z"/>
<path fill="#FBF9DD" opacity="1.000000" stroke="none" 
	d="
M165.456848,240.098969 
	C165.873352,242.424210 165.855209,244.676010 165.357025,247.400360 
	C162.311249,247.861755 159.745499,247.850632 157.179749,247.839508 
	C157.145035,245.576111 157.110306,243.312729 157.067139,240.625610 
	C159.713211,240.143112 162.367722,240.084335 165.456848,240.098969 
z"/>
<path fill="#928164" opacity="1.000000" stroke="none" 
	d="
M306.789429,200.515778 
	C307.123810,201.120224 306.950684,201.588181 306.918579,202.065643 
	C306.465851,208.798401 306.470490,208.798706 299.406525,208.930710 
	C298.972137,206.371964 298.972137,203.764343 298.972137,200.383713 
	C301.592834,200.383713 303.970154,200.383713 306.789429,200.515778 
z"/>
<path fill="#262627" opacity="1.000000" stroke="none" 
	d="
M283.117432,192.992279 
	C283.079803,195.640167 283.079803,198.044586 283.079803,200.909729 
	C280.725311,200.909729 278.643219,200.909729 276.085815,200.936691 
	C275.610535,200.963654 275.624878,201.006500 275.627380,201.028915 
	C273.888428,192.875717 274.268890,192.373215 282.675476,192.294952 
	C283.119781,192.257431 283.155090,192.748840 283.117432,192.992279 
z"/>
<path fill="#968568" opacity="1.000000" stroke="none" 
	d="
M322.726715,224.238266 
	C322.295532,221.820068 322.295532,219.380646 322.295532,216.339539 
	C324.583435,216.232559 326.799713,216.128937 329.454590,215.986755 
	C329.893219,218.398849 329.893219,220.849472 329.893219,223.797592 
	C327.616913,223.939346 325.387421,224.078186 322.726715,224.238266 
z"/>
<path fill="#968568" opacity="1.000000" stroke="none" 
	d="
M330.076355,302.542236 
	C327.584625,302.990021 325.156830,302.990021 322.140045,302.990021 
	C322.140045,300.097076 322.140045,297.852814 322.210876,295.145599 
	C324.698730,294.833038 327.115692,294.983429 330.140289,295.171631 
	C330.140289,297.612427 330.140289,299.853455 330.076355,302.542236 
z"/>
<path fill="#8F7E62" opacity="1.000000" stroke="none" 
	d="
M252.415039,216.022156 
	C251.971573,213.564255 251.971573,211.172684 251.971573,208.416931 
	C254.652130,208.236954 256.857330,208.088898 259.506592,207.948914 
	C259.762268,210.518463 259.573883,213.079941 259.352600,216.088470 
	C257.008331,216.088470 254.933426,216.088470 252.415039,216.022156 
z"/>
<path fill="#8F7E62" opacity="1.000000" stroke="none" 
	d="
M322.035645,262.570557 
	C319.877045,263.016907 317.777039,263.016907 314.907745,263.016907 
	C314.907745,260.380646 314.907745,258.151947 314.942688,255.477127 
	C317.095642,255.030975 319.213623,255.030975 322.094238,255.030975 
	C322.094238,257.682129 322.094238,259.903137 322.035645,262.570557 
z"/>
<path fill="#968568" opacity="1.000000" stroke="none" 
	d="
M119.014511,209.407669 
	C119.555412,208.913467 120.050919,208.938324 120.527176,208.854156 
	C125.628120,207.952789 127.775284,210.021576 126.935844,215.600128 
	C124.602669,216.154755 122.234024,216.264816 119.430260,216.464279 
	C118.983482,214.327820 118.971840,212.101959 119.014511,209.407669 
z"/>
<path fill="#928164" opacity="1.000000" stroke="none" 
	d="
M260.403595,208.010742 
	C259.955261,205.838959 259.955261,203.734512 259.955261,200.962723 
	C262.299744,200.962723 264.219238,200.962723 266.586060,200.995209 
	C267.033356,203.114883 267.033356,205.202087 267.033356,208.078094 
	C264.874329,208.078094 262.863129,208.078094 260.403595,208.010742 
z"/>
<path fill="#C8C8C9" opacity="1.000000" stroke="none" 
	d="
M47.462296,333.958771 
	C47.911732,336.360718 47.900269,338.763580 47.975540,341.608704 
	C43.000927,342.013000 37.939571,341.975067 32.410412,341.994873 
	C32.026398,339.644012 32.110188,337.235474 32.284775,334.383728 
	C37.250843,333.946930 42.126114,333.953308 47.462296,333.958771 
z"/>
<path fill="#C8C8C9" opacity="1.000000" stroke="none" 
	d="
M55.919689,333.627899 
	C53.656391,333.994934 51.257278,333.932312 48.407845,333.896606 
	C47.957150,333.599030 47.946388,333.274139 47.957916,332.950073 
	C48.231937,325.247131 46.956009,326.174347 55.618706,326.015442 
	C55.974846,328.421570 55.879360,330.809906 55.919689,333.627899 
z"/>
<path fill="#FFFFFF" opacity="1.000000" stroke="none" 
	d="
M32.630875,309.988037 
	C32.137917,307.782837 32.080086,305.588684 31.987988,302.915802 
	C34.338558,302.586945 36.723392,302.736847 39.548981,302.979004 
	C39.989727,305.186340 39.989727,307.301392 39.989727,309.999084 
	C37.283909,309.999084 35.174953,309.999084 32.630875,309.988037 
z"/>
<path fill="#928164" opacity="1.000000" stroke="none" 
	d="
M110.801590,113.802902 
	C110.801590,118.967636 110.801590,124.132370 110.801590,130.022644 
	C112.871178,130.022644 115.097351,130.022644 117.937378,130.014313 
	C118.551216,130.005981 118.863670,129.964188 118.849594,130.403839 
	C118.938156,133.166687 119.040794,135.489899 118.876930,138.144089 
	C118.510109,143.538956 118.409798,148.602844 118.309494,153.666718 
	C110.148239,154.350708 110.144363,154.350708 110.137802,162.677597 
	C110.128265,174.792297 110.124969,186.907013 110.085075,199.485519 
	C107.982056,199.990082 105.912971,200.030838 103.401512,200.037811 
	C102.986519,171.647018 103.013901,143.290009 103.018509,114.465744 
	C102.995720,113.998474 103.001930,114.049355 103.437012,114.089859 
	C106.181923,114.021202 108.491753,113.912048 110.801590,113.802902 
z"/>
<path fill="#655A4F" opacity="1.000000" stroke="none" 
	d="
M94.765823,105.903564 
	C94.814171,98.575714 94.862518,91.247871 94.944916,83.451218 
	C100.036682,82.982414 105.094391,82.982414 110.944336,82.982414 
	C110.944336,87.998993 110.944336,92.555527 110.970284,97.554588 
	C110.996231,97.997124 111.051270,97.997581 110.604828,98.063217 
	C107.920280,98.235916 105.682182,98.342987 103.530655,98.445908 
	C103.283607,99.361656 103.054863,99.821693 103.051079,100.283569 
	C103.013420,104.871994 103.012924,109.460716 103.001923,114.049355 
	C103.001930,114.049355 102.995720,113.998474 103.020950,113.996765 
	C100.660767,114.022240 98.275337,114.049431 95.442444,113.600632 
	C94.918587,110.717628 94.842209,108.310593 94.765823,105.903564 
z"/>
<path fill="#2C221A" opacity="1.000000" stroke="none" 
	d="
M94.346161,105.939209 
	C94.842209,108.310593 94.918587,110.717628 94.996475,113.574684 
	C94.997978,121.765434 94.997978,129.506165 94.997978,137.612579 
	C92.250671,137.612579 90.037186,137.612579 86.973022,137.612579 
	C86.973022,127.359375 86.973022,117.170685 87.015602,106.518600 
	C89.347626,106.028419 91.637062,106.001640 94.346161,105.939209 
z"/>
<path fill="#928164" opacity="1.000000" stroke="none" 
	d="
M243.991760,279.972656 
	C246.360168,279.987640 248.728577,280.002625 251.542206,280.471863 
	C251.987411,282.816467 251.987411,284.706818 251.987411,286.602600 
	C254.728424,286.602600 256.620056,286.602600 259.032837,286.602600 
	C259.032837,283.835785 259.032837,281.403137 259.016724,278.982422 
	C259.000641,278.994415 258.975769,279.026337 258.975769,279.026367 
	C261.360565,279.021362 263.745331,279.016357 266.565918,279.002167 
	C267.001740,278.992981 266.965027,278.974487 266.996643,279.424103 
	C267.028229,282.123993 267.028229,284.374268 267.028229,286.665863 
	C270.098114,286.665863 272.337830,286.665863 275.166260,286.665863 
	C275.166260,283.873901 275.166260,281.419189 275.342773,278.983765 
	C275.519257,279.003021 275.872375,279.040222 275.872375,279.040222 
	C277.989441,279.040222 280.106506,279.040222 282.617310,279.040222 
	C282.865753,281.699341 283.086761,284.064667 283.352966,286.914062 
	C288.418060,286.914062 293.285583,286.914062 298.606964,286.914062 
	C298.767914,289.623718 298.900574,291.857483 299.022339,294.539673 
	C291.240173,294.988098 283.468872,294.988098 275.222961,294.988098 
	C275.222961,307.904846 275.222961,320.518921 275.382568,333.578552 
	C267.963654,333.824738 260.385132,333.625336 252.377106,333.290924 
	C251.947586,328.378418 251.947586,323.600922 251.947586,318.110779 
	C249.382187,318.110779 247.133286,318.110779 244.435730,318.077759 
	C243.987091,313.003906 243.987091,307.963043 243.987091,302.206604 
	C241.274033,302.206604 239.047821,302.206604 236.368088,302.229980 
	C235.914566,299.804443 235.914566,297.355530 235.914566,294.910828 
	C225.664948,294.910828 215.801651,294.910828 205.502533,294.994141 
	C205.066711,292.638428 205.066711,290.199341 205.066711,287.363983 
	C207.593643,287.147461 209.823517,286.956421 212.499710,286.727112 
	C212.749893,284.728607 213.004807,282.692322 213.305283,280.292114 
	C215.318878,280.153656 217.236176,280.021790 219.601639,280.297516 
	C220.049820,282.617126 220.049820,284.529144 220.049820,286.628845 
	C222.021530,286.767456 223.305588,286.941132 224.587143,286.924194 
	C225.851517,286.907501 227.113373,286.697906 228.973572,286.513855 
	C228.973572,283.826874 228.973572,281.397461 228.973572,278.968048 
	C231.030975,278.976410 233.088379,278.984772 235.583008,279.434387 
	C236.020233,282.122345 236.020233,284.369080 236.020233,286.664734 
	C238.993973,286.664734 241.223740,286.664734 243.991760,286.664734 
	C243.991760,284.207886 243.991760,282.090271 243.991760,279.972656 
z"/>
<path fill="#948366" opacity="1.000000" stroke="none" 
	d="
M298.970551,295.452057 
	C301.451630,294.984344 303.884766,294.984344 306.901581,294.984344 
	C306.901581,302.736847 306.901581,309.967224 306.868561,317.676575 
	C304.358734,318.123108 301.881897,318.090668 298.930054,318.037048 
	C298.610870,310.650513 298.766754,303.285126 298.970551,295.452057 
z"/>
<path fill="#6A5D52" opacity="1.000000" stroke="none" 
	d="
M298.966370,99.041885 
	C298.985291,101.059227 299.004211,103.076576 299.007660,105.996597 
	C298.993530,117.265465 298.994873,127.631645 298.996185,137.997833 
	C298.996185,140.421112 298.996185,142.844391 298.996185,146.006317 
	C290.900391,146.006317 283.397797,146.006317 275.422058,146.008301 
	C274.948914,146.010284 275.001984,146.004105 274.997131,145.575348 
	C274.992249,142.919647 274.992249,140.692688 274.992249,138.459396 
	C272.003784,137.967438 269.488953,137.553452 267.067139,136.669250 
	C267.097565,118.437881 267.034943,100.676712 266.972290,82.915543 
	C266.972290,82.915543 266.954559,82.992134 266.915680,82.988220 
	C271.933075,82.963951 276.989319,82.943581 282.519806,83.417297 
	C282.994019,86.133286 282.994019,88.355202 282.994019,90.978088 
	C286.164734,90.978088 288.590485,90.978088 291.016235,90.978088 
	C291.016235,90.978088 290.999939,90.986328 291.010864,91.431656 
	C291.060455,98.754967 291.060486,98.753960 297.988312,98.945015 
	C298.314972,98.954018 298.640381,99.008553 298.966370,99.041885 
z"/>
<path fill="#322922" opacity="1.000000" stroke="none" 
	d="
M299.438293,137.986847 
	C298.994873,127.631645 298.993530,117.265465 299.032166,106.428207 
	C301.399048,105.970970 303.725983,105.984810 306.488892,106.030472 
	C306.933044,116.399170 306.941162,126.736038 306.948669,137.519806 
	C304.592163,137.969772 302.236298,137.972824 299.438293,137.986847 
z"/>
<path fill="#8F7E62" opacity="1.000000" stroke="none" 
	d="
M180.963989,310.523438 
	C183.383759,310.059204 185.832657,310.059204 189.069839,310.059204 
	C189.069839,318.049866 189.069839,325.443451 189.101166,333.287109 
	C186.712158,333.814178 184.291824,333.891144 181.418976,333.999939 
	C180.975342,326.350403 180.984222,318.669006 180.963989,310.523438 
z"/>
<path fill="#2C221A" opacity="1.000000" stroke="none" 
	d="
M173.108948,310.544891 
	C165.467545,310.961243 165.467545,310.961243 165.268829,303.045563 
	C165.401520,302.228882 165.613098,302.097198 166.312714,302.089874 
	C168.799927,302.128784 170.848160,302.122192 172.896378,302.115570 
	C172.896378,302.115570 173.072815,302.478668 173.158691,303.093811 
	C173.166733,305.790619 173.088882,307.872314 173.011032,309.954010 
	C173.011032,309.954010 173.101288,310.344604 173.108948,310.544891 
z"/>
<path fill="#8F7E62" opacity="1.000000" stroke="none" 
	d="
M173.448532,310.013824 
	C173.088882,307.872314 173.166733,305.790619 173.274017,303.259460 
	C175.686340,302.934692 178.069199,303.059387 181.020844,303.213867 
	C181.020844,305.393494 181.020844,307.280823 180.980835,309.616760 
	C178.589218,310.068146 176.237625,310.070892 173.448532,310.013824 
z"/>
<path fill="#97896D" opacity="1.000000" stroke="none" 
	d="
M118.423279,97.947693 
	C118.885445,100.470856 118.933037,103.141594 118.969650,106.385490 
	C118.958672,106.958641 118.685936,107.016106 118.685936,107.016098 
	C116.408691,106.985260 114.131439,106.954422 111.364227,106.514221 
	C110.933266,103.402435 110.992271,100.700005 111.051270,97.997581 
	C111.051270,97.997581 110.996231,97.997124 110.996513,98.024338 
	C113.334099,98.066132 115.671410,98.080704 118.423279,97.947693 
z"/>
<path fill="#8F7E62" opacity="1.000000" stroke="none" 
	d="
M133.588135,75.103821 
	C134.034149,77.484810 134.034149,79.923698 134.034149,82.943382 
	C131.094467,82.943382 128.812744,82.943382 126.101379,82.698730 
	C125.869576,80.240906 126.067421,78.027725 126.110100,75.403152 
	C128.350662,75.048409 130.746384,75.105072 133.588135,75.103821 
z"/>
<path fill="#8F7E62" opacity="1.000000" stroke="none" 
	d="
M125.007858,82.721710 
	C125.684990,85.131905 125.995155,87.667625 126.401619,90.990730 
	C123.721802,90.990730 121.799484,90.990730 119.428879,90.995712 
	C118.723717,88.501579 118.466843,86.002464 118.185616,83.266487 
	C120.794571,83.097046 122.717728,82.972145 125.007858,82.721710 
z"/>
<path fill="#968568" opacity="1.000000" stroke="none" 
	d="
M306.859131,318.614227 
	C309.297668,318.158203 311.747223,318.158203 315.014465,318.158203 
	C315.014465,323.317688 315.014465,328.068451 315.068970,333.264709 
	C312.561951,333.773315 310.000427,333.836395 306.954590,333.971039 
	C306.603546,329.051788 306.736816,324.061035 306.859131,318.614227 
z"/>
<path fill="#2C221A" opacity="1.000000" stroke="none" 
	d="
M291.012878,90.536789 
	C288.590485,90.978088 286.164734,90.978088 282.994019,90.978088 
	C282.994019,88.355202 282.994019,86.133286 282.983337,83.464233 
	C285.344574,83.012169 287.716431,83.007233 290.531494,83.012360 
	C290.986267,85.380112 290.997894,87.737801 291.012878,90.536789 
z"/>
<path fill="#97896D" opacity="1.000000" stroke="none" 
	d="
M110.710739,200.787262 
	C118.977165,199.663162 119.039520,199.717255 118.711746,207.901672 
	C116.357468,208.188431 114.083504,208.015518 111.280655,207.802399 
	C111.115799,205.622543 110.948738,203.413513 110.710739,200.787262 
z"/>
<path fill="#322922" opacity="1.000000" stroke="none" 
	d="
M298.982330,98.595322 
	C298.640381,99.008553 298.314972,98.954018 297.988312,98.945015 
	C291.060486,98.753960 291.060455,98.754967 291.008728,91.440414 
	C293.361176,91.010651 295.726624,91.017471 298.534912,91.023331 
	C298.984558,93.397827 298.991425,95.773300 298.982330,98.595322 
z"/>
<path fill="#635947" opacity="1.000000" stroke="none" 
	d="
M197.070724,161.570511 
	C197.070724,163.866196 197.070724,166.161896 197.070724,168.783722 
	C199.650055,168.996231 201.899078,169.181534 204.566238,169.401291 
	C204.566238,177.065353 204.566238,184.609833 204.566238,192.555115 
	C202.204315,192.745438 199.945129,192.927505 197.077896,193.158554 
	C197.077896,197.881912 197.077896,202.606949 197.077896,207.940552 
	C191.606995,207.940552 186.719757,207.940552 181.530273,207.940552 
	C181.249741,210.912109 181.023514,213.308380 180.771866,215.974091 
	C170.613541,215.974091 160.703827,215.974091 150.362122,215.974091 
	C150.138351,213.594818 149.913589,211.204880 149.644196,208.340332 
	C144.529816,208.340332 139.604141,208.340332 134.137360,208.340332 
	C134.137360,203.117020 134.137360,198.378174 134.137360,193.344711 
	C131.548904,193.109741 129.473618,192.921341 127.068550,192.703018 
	C127.068550,184.985382 127.068550,177.432541 127.068550,169.502823 
	C129.211563,169.282394 131.291016,169.068481 134.035400,168.786194 
	C134.035400,166.442383 134.035400,164.172791 134.019684,161.451843 
	C134.003967,161.000488 134.001053,161.060577 134.452148,161.089661 
	C137.147858,161.118759 139.392487,161.118759 141.952591,161.118759 
	C141.952591,158.119781 141.952591,155.829224 141.952591,153.538666 
	C157.343903,153.564148 172.735229,153.589630 188.613739,154.011810 
	C189.143753,161.912460 189.143753,161.912582 196.581024,161.610748 
	C196.744522,161.604111 196.907501,161.584213 197.070724,161.570511 
M180.998215,192.110214 
	C180.840042,184.979736 182.594818,184.785767 173.271378,185.110641 
	C173.271378,185.110641 172.998581,184.961060 172.999969,184.074524 
	C172.978317,181.688629 172.956680,179.302719 172.980774,176.040497 
	C172.980774,174.130585 172.980774,172.220657 172.980774,170.409225 
	C181.596710,169.517319 182.057114,168.932358 180.152435,162.209534 
	C170.286179,162.209534 160.406555,162.209534 150.390686,162.209534 
	C150.390686,164.607803 150.390686,166.651123 150.390686,168.643173 
	C157.730148,169.535645 157.729919,169.535645 157.921097,176.553940 
	C157.925598,176.719696 157.951340,176.884842 157.974823,177.869858 
	C157.676910,180.289368 157.378998,182.708893 157.065353,185.033508 
	C157.065353,185.033508 157.145004,185.087433 156.232620,185.022308 
	C151.393188,184.162186 149.015152,185.839859 149.982590,191.036392 
	C150.101013,191.672516 150.003754,192.348785 149.108337,192.995575 
	C147.951614,192.994812 146.783447,193.098648 145.640320,192.973618 
	C142.263733,192.604309 141.985443,194.590103 141.949615,197.247131 
	C141.912643,199.987503 142.812729,201.129822 145.656662,201.045639 
	C148.213089,200.969986 150.365280,200.931015 150.022415,197.452866 
	C149.877197,195.979813 149.995224,194.480804 150.904510,192.999237 
	C153.075745,192.969482 155.246964,192.939728 158.298065,192.953262 
	C163.371490,192.936905 168.444931,192.920547 174.480576,192.951187 
	C176.656601,192.964600 178.832611,192.978027 181.002335,193.889725 
	C181.001984,195.047485 181.107635,196.216965 180.981400,197.360825 
	C180.607727,200.746552 182.602951,201.013428 185.258316,201.050476 
	C188.006393,201.088791 189.137039,200.175034 189.055450,197.334152 
	C188.981796,194.770218 188.930328,192.624817 185.454575,192.969696 
	C183.980057,193.116013 182.479858,193.003571 180.998215,192.110214 
z"/>
<path fill="#160F0E" opacity="1.000000" stroke="none" 
	d="
M266.510773,82.871307 
	C267.034943,100.676712 267.097565,118.437881 267.099670,136.831329 
	C267.039154,137.463623 267.055328,137.798370 267.055328,137.798370 
	C264.904999,137.798370 262.754639,137.798370 260.057739,137.798370 
	C260.057739,119.615265 260.057739,101.586952 260.057739,82.827072 
	C261.869751,82.827072 263.959503,82.827072 266.510773,82.871307 
z"/>
<path fill="#261510" opacity="1.000000" stroke="none" 
	d="
M118.476593,153.756531 
	C118.409798,148.602844 118.510109,143.538956 119.311829,138.157867 
	C122.049698,137.840637 124.086159,137.840637 126.480690,137.840637 
	C126.480690,134.861526 126.480690,132.460846 126.953842,130.034454 
	C129.624451,129.998199 131.821915,129.987671 134.019379,129.977142 
	C134.019379,129.977142 134.006836,129.986420 134.008057,130.458145 
	C134.109863,138.339096 134.210464,145.748322 134.204803,153.338562 
	C134.098541,153.519577 133.908447,153.893890 133.447968,153.893570 
	C128.308014,153.952682 123.628517,154.012115 118.949028,154.071548 
	C118.949028,154.071548 118.643700,153.846329 118.476593,153.756531 
z"/>
<path fill="#907F63" opacity="1.000000" stroke="none" 
	d="
M134.311066,153.157547 
	C134.210464,145.748322 134.109863,138.339096 134.009232,130.460587 
	C136.447296,129.991302 138.885391,129.991302 142.048538,129.991302 
	C142.048538,137.829651 142.048538,145.193207 141.622208,152.903290 
	C138.900940,153.219055 136.606003,153.188293 134.311066,153.157547 
z"/>
<path fill="#928164" opacity="1.000000" stroke="none" 
	d="
M188.985184,153.420624 
	C188.985184,145.872253 188.985184,138.323883 188.985184,130.041061 
	C191.637512,130.041061 193.866425,130.041061 196.541565,130.004761 
	C196.987823,129.968445 196.963425,129.963791 196.910034,130.401337 
	C196.907745,133.174515 196.958847,135.510162 196.956024,138.319183 
	C196.923294,143.536316 196.944489,148.280090 196.827698,153.130829 
	C196.689682,153.237793 196.418579,153.457947 196.032135,153.353745 
	C193.425507,153.306580 191.205353,153.363602 188.985184,153.420624 
z"/>
<path fill="#928164" opacity="1.000000" stroke="none" 
	d="
M213.082581,129.904999 
	C215.195175,130.007675 217.307770,130.110352 219.769409,130.230011 
	C219.769409,137.841766 219.769409,145.170990 219.769409,153.141541 
	C217.761810,153.141541 215.996384,153.141541 213.552795,153.100128 
	C212.706802,153.055237 212.538986,153.051758 212.346832,152.615204 
	C212.437683,144.910248 212.552872,137.638367 212.771011,130.250519 
	C212.873978,130.134552 213.082581,129.904999 213.082581,129.904999 
z"/>
<path fill="#8A795E" opacity="1.000000" stroke="none" 
	d="
M212.371170,153.048279 
	C212.538986,153.051758 212.706802,153.055237 213.125305,153.095215 
	C213.114136,155.755295 212.852264,158.378860 212.561005,161.296906 
	C207.639786,161.296906 202.751862,161.296906 197.415680,160.963928 
	C196.784470,158.239960 196.601517,155.848953 196.418579,153.457947 
	C196.418579,153.457947 196.689682,153.237793 197.291992,153.213058 
	C202.719925,153.141647 207.545547,153.094971 212.371170,153.048279 
z"/>
<path fill="#130C0C" opacity="1.000000" stroke="none" 
	d="
M110.604828,98.063217 
	C110.992271,100.700005 110.933266,103.402435 110.935760,106.551331 
	C110.945374,108.983665 110.893509,110.969521 110.821609,113.379135 
	C108.491753,113.912048 106.181923,114.021202 103.437004,114.089859 
	C103.012924,109.460716 103.013420,104.871994 103.051079,100.283569 
	C103.054863,99.821693 103.283607,99.361656 103.530655,98.445908 
	C105.682182,98.342987 107.920280,98.235916 110.604828,98.063217 
z"/>
<path fill="#968568" opacity="1.000000" stroke="none" 
	d="
M134.040894,129.528748 
	C131.821915,129.987671 129.624451,129.998199 126.541542,130.033722 
	C123.391953,130.027222 121.127815,129.995697 118.863670,129.964172 
	C118.863670,129.964188 118.551216,130.005981 118.398865,130.033417 
	C117.929749,122.051804 117.929749,122.051697 125.740921,122.050529 
	C128.211060,122.050156 130.681198,122.050476 133.736359,122.050476 
	C133.855133,124.611526 133.958771,126.845947 134.040894,129.528748 
z"/>
<path fill="#968568" opacity="1.000000" stroke="none" 
	d="
M196.991241,129.979706 
	C196.994675,127.556282 196.994675,125.121582 196.994675,122.069351 
	C201.612045,122.069351 205.706451,121.853882 209.768509,122.124397 
	C214.740295,122.455513 212.175644,126.592911 213.008469,129.480103 
	C213.082581,129.904999 212.873978,130.134552 212.362610,130.139389 
	C209.563431,130.100189 207.275589,130.056152 204.542847,130.002716 
	C201.719757,129.983475 199.341599,129.973633 196.963425,129.963791 
	C196.963425,129.963791 196.987823,129.968445 196.991241,129.979706 
z"/>
<path fill="#928164" opacity="1.000000" stroke="none" 
	d="
M118.914612,154.516479 
	C123.628517,154.012115 128.308014,153.952682 133.475067,154.341293 
	C133.975449,156.879745 133.988251,158.970169 134.001053,161.060577 
	C134.001053,161.060577 134.003967,161.000488 134.034058,161.000275 
	C129.279114,161.000046 124.494072,161.000046 119.165306,161.000046 
	C119.061142,158.793777 118.970673,156.877594 118.914612,154.516479 
z"/>
<path fill="#6B5F3B" opacity="1.000000" stroke="none" 
	d="
M205.022079,106.943596 
	C202.578186,106.821609 200.134293,106.699631 197.322723,106.559296 
	C197.322723,103.857613 197.322723,101.350426 197.322723,98.535530 
	C199.816422,98.535530 202.183594,98.535530 205.048615,98.535530 
	C205.048615,101.262245 205.048615,103.691261 205.007050,106.544098 
	C204.965500,106.967911 205.022079,106.943596 205.022079,106.943596 
z"/>
<path fill="#D0C6A3" opacity="1.000000" stroke="none" 
	d="
M196.032135,153.353745 
	C196.601517,155.848953 196.784470,158.239960 196.990433,161.118713 
	C197.013458,161.606461 197.036957,161.583420 197.053833,161.576965 
	C196.907501,161.584213 196.744522,161.604111 196.581024,161.610748 
	C189.143753,161.912582 189.143753,161.912460 189.074921,153.919739 
	C189.048904,153.430969 189.015411,153.424637 189.000305,153.422638 
	C191.205353,153.363602 193.425507,153.306580 196.032135,153.353745 
z"/>
<path fill="#0E0708" opacity="1.000000" stroke="none" 
	d="
M267.101471,138.252213 
	C267.055328,137.798370 267.039154,137.463623 267.006653,137.301544 
	C269.488953,137.553452 272.003784,137.967438 274.992249,138.459396 
	C274.992249,140.692688 274.992249,142.919647 274.994873,145.601715 
	C272.581207,145.914047 270.164978,145.771255 267.147614,145.592926 
	C267.147614,143.177780 267.147614,140.941910 267.101471,138.252213 
z"/>
<path fill="#CEC4A2" opacity="1.000000" stroke="none" 
	d="
M134.452148,161.089661 
	C133.988251,158.970169 133.975449,156.879745 133.935547,154.341614 
	C133.908447,153.893890 134.098541,153.519577 134.204803,153.338562 
	C136.606003,153.188293 138.900940,153.219055 141.602921,153.407043 
	C142.009964,153.564255 141.981720,153.558670 141.967163,153.548660 
	C141.952591,155.829224 141.952591,158.119781 141.952591,161.118759 
	C139.392487,161.118759 137.147858,161.118759 134.452148,161.089661 
z"/>
<path fill="#5E512D" opacity="1.000000" stroke="none" 
	d="
M133.611908,105.712250 
	C131.177216,106.160568 129.051926,106.260033 126.519363,106.378563 
	C126.519363,103.687523 126.519363,101.330093 126.519363,98.638977 
	C128.847733,98.638977 131.085358,98.638977 133.921310,98.638977 
	C133.921310,100.912750 133.921310,103.138069 133.611908,105.712250 
z"/>
<path fill="#5E512D" opacity="1.000000" stroke="none" 
	d="
M204.954041,106.996490 
	C207.359955,106.894035 209.777328,106.762993 212.544922,106.612961 
	C212.544922,109.201729 212.544922,111.266106 212.544922,113.741211 
	C210.206711,113.741211 207.868652,113.741211 204.997299,113.741211 
	C204.997299,111.718040 204.997299,109.787392 205.009689,107.400177 
	C205.022079,106.943596 204.965500,106.967911 204.954041,106.996490 
z"/>
<path fill="#5E512D" opacity="1.000000" stroke="none" 
	d="
M118.987427,106.822281 
	C121.267059,106.685913 123.517929,106.685913 126.044876,106.685913 
	C126.044876,109.339302 126.044876,111.392136 126.044876,113.796509 
	C123.705208,113.796509 121.507492,113.796509 118.655464,113.796509 
	C118.655464,111.745468 118.655464,109.835770 118.670700,107.471085 
	C118.685936,107.016106 118.958672,106.958641 118.987427,106.822281 
z"/>
<path fill="#CEC4A2" opacity="1.000000" stroke="none" 
	d="
M228.984772,278.984009 
	C228.973572,281.397461 228.973572,283.826874 228.973572,286.513855 
	C227.113373,286.697906 225.851517,286.907501 224.587143,286.924194 
	C223.305588,286.941132 222.021530,286.767456 220.049820,286.628845 
	C220.049820,284.529144 220.049820,282.617126 220.046066,280.237427 
	C220.042313,279.769775 219.993210,279.433411 220.435883,279.251892 
	C223.595184,279.053925 226.311829,279.037445 229.028473,279.020996 
	C229.028473,279.020996 228.995987,278.999969 228.984772,278.984009 
z"/>
<path fill="#97896D" opacity="1.000000" stroke="none" 
	d="
M228.981171,278.574158 
	C226.311829,279.037445 223.595184,279.053925 220.424683,279.082336 
	C219.970810,276.657715 219.970810,274.221161 219.970810,271.934052 
	C228.252777,269.784668 228.838074,270.224030 228.981171,278.574158 
z"/>
<path fill="#968568" opacity="1.000000" stroke="none" 
	d="
M275.874268,278.599030 
	C275.872375,279.040222 275.519257,279.003021 274.879211,278.998474 
	C271.814453,278.987457 269.389740,278.980957 266.965027,278.974487 
	C266.965027,278.974487 267.001740,278.992981 267.012695,279.010803 
	C267.023682,276.585510 267.023682,274.142365 267.023682,271.844818 
	C275.311890,270.042938 275.863495,270.471832 275.874268,278.599030 
z"/>
<path fill="#F3EE91" opacity="1.000000" stroke="none" 
	d="
M157.128723,248.290939 
	C159.745499,247.850632 162.311249,247.861755 165.293076,247.815948 
	C165.812775,250.159073 165.916412,252.559128 166.055420,255.390564 
	C165.447281,255.867767 164.804291,255.943466 164.160172,255.954834 
	C156.985855,256.081329 156.985809,256.078644 157.128723,248.290939 
z"/>
<path fill="#CEC4A2" opacity="1.000000" stroke="none" 
	d="
M243.986649,279.705261 
	C243.991760,282.090271 243.991760,284.207886 243.991760,286.664734 
	C241.223740,286.664734 238.993973,286.664734 236.020233,286.664734 
	C236.020233,284.369080 236.020233,282.122345 236.023773,279.423370 
	C236.027313,278.971161 236.004135,279.001556 236.433319,279.028625 
	C239.227982,279.004944 241.593460,278.954163 243.958954,278.903412 
	C243.966476,279.081543 243.974014,279.259705 243.986649,279.705261 
z"/>
<path fill="#968568" opacity="1.000000" stroke="none" 
	d="
M243.955338,278.465088 
	C241.593460,278.954163 239.227982,279.004944 236.417358,279.038879 
	C235.972244,276.600464 235.972244,274.178833 235.972244,271.407166 
	C238.671310,271.407166 240.877716,271.407166 243.951721,271.407166 
	C243.951721,273.612366 243.951721,275.819580 243.955338,278.465088 
z"/>
<path fill="#928164" opacity="1.000000" stroke="none" 
	d="
M306.839996,223.587830 
	C306.791260,224.035583 306.398285,223.997238 306.200867,223.998016 
	C303.900665,223.998810 301.797852,223.998810 298.970184,223.998810 
	C298.970184,221.365997 298.970184,219.126419 298.975586,216.437164 
	C299.304840,216.009689 299.628418,216.046265 299.952545,216.052048 
	C306.964233,216.177475 306.964233,216.176804 306.839996,223.587830 
z"/>
<path fill="#948366" opacity="1.000000" stroke="none" 
	d="
M252.011490,278.969666 
	C252.011490,276.545227 252.011490,274.120758 252.011490,271.383789 
	C254.422043,271.383789 256.309692,271.383789 258.998199,271.383789 
	C258.998199,273.673737 258.998199,275.899323 258.987000,278.575623 
	C258.975769,279.026337 259.000641,278.994415 258.577423,279.015198 
	C256.106628,279.013855 254.059067,278.991760 252.011490,278.969666 
z"/>
<path fill="#CEC4A2" opacity="1.000000" stroke="none" 
	d="
M252.004425,279.239532 
	C254.059067,278.991760 256.106628,279.013855 258.593506,279.003204 
	C259.032837,281.403137 259.032837,283.835785 259.032837,286.602600 
	C256.620056,286.602600 254.728424,286.602600 251.987411,286.602600 
	C251.987411,284.706818 251.987411,282.816467 251.985443,280.487610 
	C251.988098,279.869202 251.992737,279.689301 252.004425,279.239532 
z"/>
<path fill="#928164" opacity="1.000000" stroke="none" 
	d="
M172.954376,301.665894 
	C170.848160,302.122192 168.799927,302.128784 166.334137,301.656647 
	C165.889328,299.170441 165.862091,297.163025 165.834869,295.155579 
	C165.834869,295.155579 166.035919,294.959717 166.134644,294.858887 
	C168.312500,294.908661 170.391632,295.059296 173.012375,295.249176 
	C173.012375,297.404846 173.012375,299.310516 172.954376,301.665894 
z"/>
<path fill="#1D1515" opacity="1.000000" stroke="none" 
	d="
M165.398438,295.056702 
	C165.862091,297.163025 165.889328,299.170441 165.895142,301.611115 
	C165.613098,302.097198 165.401520,302.228882 165.157806,302.610779 
	C156.889832,303.160278 156.736145,302.994141 158.347702,294.957794 
	C160.487000,294.957794 162.724503,294.957794 165.398438,295.056702 
z"/>
<path fill="#F2F3F4" opacity="1.000000" stroke="none" 
	d="
M118.849594,130.403839 
	C121.127815,129.995697 123.391953,130.027222 126.068390,130.059448 
	C126.480690,132.460846 126.480690,134.861526 126.480690,137.840637 
	C124.086159,137.840637 122.049698,137.840637 119.578339,137.826874 
	C119.040794,135.489899 118.938156,133.166687 118.849594,130.403839 
z"/>
<path fill="#CEC4A2" opacity="1.000000" stroke="none" 
	d="
M266.996643,279.424072 
	C269.389740,278.980957 271.814453,278.987457 274.702698,278.979218 
	C275.166260,281.419189 275.166260,283.873901 275.166260,286.665863 
	C272.337830,286.665863 270.098114,286.665863 267.028229,286.665863 
	C267.028229,284.374268 267.028229,282.123993 266.996643,279.424072 
z"/>
<path fill="#22110D" opacity="1.000000" stroke="none" 
	d="
M157.967163,177.050293 
	C157.951340,176.884842 157.925598,176.719696 157.921097,176.553940 
	C157.729919,169.535645 157.730148,169.535645 150.390686,168.643173 
	C150.390686,166.651123 150.390686,164.607803 150.390686,162.209534 
	C160.406555,162.209534 170.286179,162.209534 180.152435,162.209534 
	C182.057114,168.932358 181.596710,169.517319 172.980774,170.409225 
	C172.980774,172.220657 172.980774,174.130585 172.498871,176.509705 
	C167.333694,177.002716 162.650421,177.026505 157.967163,177.050293 
z"/>
<path fill="#E1387E" opacity="1.000000" stroke="none" 
	d="
M172.998581,184.961060 
	C172.998581,184.961060 173.271378,185.110641 173.483826,185.531372 
	C173.636963,188.269470 173.577652,190.586823 173.518356,192.904190 
	C168.444931,192.920547 163.371490,192.936905 157.800873,192.499817 
	C157.250778,189.726730 157.197891,187.407089 157.145020,185.087433 
	C157.145004,185.087433 157.065353,185.033508 157.532684,185.060028 
	C162.999542,185.044724 167.999054,185.002899 172.998581,184.961060 
z"/>
<path fill="#4A4134" opacity="1.000000" stroke="none" 
	d="
M172.999268,184.517792 
	C167.999054,185.002899 162.999542,185.044724 157.540558,185.107483 
	C157.378998,182.708893 157.676910,180.289368 157.970993,177.460083 
	C162.650421,177.026505 167.333694,177.002716 172.475983,176.947876 
	C172.956680,179.302719 172.978317,181.688629 172.999268,184.517792 
z"/>
<path fill="#4A4134" opacity="1.000000" stroke="none" 
	d="
M149.993591,192.993591 
	C149.995224,194.480804 149.877197,195.979813 150.022415,197.452866 
	C150.365280,200.931015 148.213089,200.969986 145.656662,201.045639 
	C142.812729,201.129822 141.912643,199.987503 141.949615,197.247131 
	C141.985443,194.590103 142.263733,192.604309 145.640320,192.973618 
	C146.783447,193.098648 147.951614,192.994812 149.554169,192.997787 
	C150.000000,193.000000 149.993591,192.993591 149.993591,192.993591 
z"/>
<path fill="#4A4134" opacity="1.000000" stroke="none" 
	d="
M180.991333,193.008728 
	C182.479858,193.003571 183.980057,193.116013 185.454575,192.969696 
	C188.930328,192.624817 188.981796,194.770218 189.055450,197.334152 
	C189.137039,200.175034 188.006393,201.088791 185.258316,201.050476 
	C182.602951,201.013428 180.607727,200.746552 180.981400,197.360825 
	C181.107635,196.216965 181.001984,195.047485 181.001160,193.444885 
	C181.000000,193.000031 180.991333,193.008713 180.991333,193.008728 
z"/>
<path fill="#4A4134" opacity="1.000000" stroke="none" 
	d="
M156.688812,185.054871 
	C157.197891,187.407089 157.250778,189.726730 157.360931,192.478180 
	C155.246964,192.939728 153.075745,192.969482 150.449051,192.996414 
	C149.993591,192.993591 150.000000,193.000000 150.003235,193.003235 
	C150.003754,192.348785 150.101013,191.672516 149.982590,191.036392 
	C149.015152,185.839859 151.393188,184.162186 156.688812,185.054871 
z"/>
<path fill="#4A4134" opacity="1.000000" stroke="none" 
	d="
M173.999466,192.927689 
	C173.577652,190.586823 173.636963,188.269470 173.639038,185.520996 
	C182.594818,184.785767 180.840042,184.979736 180.994781,192.559464 
	C180.991333,193.008713 181.000000,193.000031 181.004318,192.995743 
	C178.832611,192.978027 176.656601,192.964600 173.999466,192.927689 
z"/>
<path fill="#24130F" opacity="1.000000" stroke="none" 
	d="
M204.987762,130.012131 
	C207.275589,130.056152 209.563431,130.100189 212.259644,130.255356 
	C212.552872,137.638367 212.437683,144.910248 212.346832,152.615204 
	C207.545547,153.094971 202.719925,153.141647 197.429993,153.106079 
	C196.944489,148.280090 196.923294,143.536316 197.403122,138.320541 
	C200.158157,137.848526 202.412155,137.848526 204.987762,137.848526 
	C204.987762,134.895981 204.987762,132.454056 204.987762,130.012131 
z"/>
<path fill="#F2F3F4" opacity="1.000000" stroke="none" 
	d="
M204.542847,130.002716 
	C204.987762,132.454056 204.987762,134.895981 204.987762,137.848526 
	C202.412155,137.848526 200.158157,137.848526 197.457062,137.847168 
	C196.958847,135.510162 196.907745,133.174515 196.910034,130.401337 
	C199.341599,129.973633 201.719757,129.983475 204.542847,130.002716 
z"/>
</svg>